<svg version="1" xmlns="http://www.w3.org/2000/svg" width="1170.667" height="1170.667" viewBox="0 0 878.000000 878.000000"><path d="M402 .3c-.3.3-4 .7-8.2 1.1-11.1.9-24.4 2.8-35.8 5.1-1.4.3-4.1.8-6 1.1-10.3 1.8-37.7 9.2-53.1 14.4-30.9 10.3-62.6 25.1-88.3 40.9C202.4 68 183.7 80.2 183 81c-.3.3-3 2.3-6 4.5s-5.7 4.2-6 4.5c-.3.3-4.1 3.4-8.4 6.8-12.2 9.6-20.9 17.5-35.6 32.2-40.9 40.9-74.9 92.3-95.5 144-2 5.2-4.1 10.4-4.6 11.5-2.7 6.1-13.1 39.5-14.3 45.8-.2 1.2-.9 4.2-1.6 6.7-.7 2.5-1.4 5.2-1.5 6-3.4 16.5-4.9 24.8-6.1 34-.3 1.9-.6 4.5-.9 5.7-2 11.7-3 85.7-1.2 102.3 5.9 56.5 24.3 115.4 51.2 164.5 12.6 23 36.9 58.6 48.7 71.5 1.3 1.4 5 5.7 8.3 9.5 10.6 12.3 32.1 33.3 47.5 46.3 42.4 35.8 97.1 65.6 151 82.3 16 5 42.4 11.4 55.8 13.5 1.5.2 5.4.8 8.7 1.4 10.4 1.6 12.8 1.9 20 2.7 3.9.5 24.8.8 46.5.8 35 0 47.2-.4 56-2 1.4-.2 4.5-.7 7-1 3.9-.5 9.9-1.5 24-4 8.3-1.4 40.4-10.1 51.9-13.9 45.1-15.2 89.3-38.4 125.6-66 71.7-54.4 124.8-128 152.6-211.6 5-15.3 10.9-35.7 12.3-43.1.2-1.3 1.3-6.9 2.4-12.4 1.9-9.4 4-23.2 6.2-40.5.9-7.7.6-85.8-.4-92-.6-4.1-1.5-10-2.1-15.5-.3-2.2-1.2-7.8-2.1-12.5-.9-4.7-1.8-9.6-2.1-11-3.4-18.8-15.1-59.3-20.3-70.5-.5-1.1-2.8-6.7-5.2-12.5-8.3-20.4-21.8-46.3-35-66.8-5.5-8.5-19.1-28-22.5-32.2-16.7-20.7-21.4-26-37.3-42-19.5-19.6-41.2-37.6-65.5-54.1-39.7-27-88.3-48.9-135-60.7-23.4-5.9-37.4-8.6-56-10.8-3.3-.3-6.9-.9-8-1.2-2.4-.6-82.9-1.5-83.5-.9zm74 32c1.4.3 5.4.8 9 1.2 3.6.3 7.4.8 8.5 1 1.1.2 4.3.7 7 1 4.1.5 14 2.3 27.4 5.1C568.5 49 617.4 69 655.5 93c9 5.6 27.4 18.4 32.2 22.4 1 .8 3.6 2.9 5.8 4.6 14 10.7 38.8 34.2 52 49.5 3.8 4.4 7.3 7.9 7.8 7.7.5-.1.6.1.4.5-.3.5.6 2.2 2 3.8 12 14.5 27.2 36.6 37.5 54.6 19.8 34.4 37.1 79.1 44.3 114.4 2.7 13.6 4.5 22.9 5 27 .4 2.7.9 5.9 1.1 7 .2 1 .6 5.1 1 9 .3 3.8.9 9.7 1.4 13 .8 6.4.6 63.3-.4 70-.3 2.2-.8 6.2-1.1 9-.3 2.7-.7 6.1-.9 7.5-.2 1.4-.7 4.7-1.1 7.5-.8 6-5.1 28.6-6.4 33.5-7.1 26.6-9.4 33.8-16 51.1-4.5 12-13.3 31.9-16.2 36.7-1 1.8-1.9 4-1.9 4.8 0 .8-.4 1.4-.8 1.4-.5 0-1.4 1.6-2.2 3.5-.8 1.9-1.7 3.5-2.2 3.5-.4 0-.8.5-.8 1.2 0 .9-5.4 10.5-12.5 21.9-8.6 14-27.6 39-40.5 53.3-7.3 8.2-25.8 26.4-34 33.5-4.7 4.1-8.7 7.7-9 8.1-.5.6-13.2 10.4-17.1 13.2-1.3 1-5.5 4.1-9.4 6.9-10.8 7.8-45.6 28.9-47.8 28.9-.3 0-3.3-6.2-6.7-13.8-3.5-7.5-8.7-18.9-11.7-25.2-3.1-6.3-6.4-13.7-7.5-16.5-2-5.1-9-20.4-11-24-2.4-4.3-11.8-23.5-16.1-33-2.5-5.5-6.1-13.4-8-17.6-4.8-10.2-7.2-17.7-9.9-31.1-1.3-6.2-2.5-11.5-2.8-11.8-1.6-1.6-1.8-28.7-.2-35.9.7-3 5.7-14.5 11.2-25.5 9-18.4 10-20.8 11-29 .7-4.8 1-11.1.7-14-.4-4.2-8.6-40.4-10.4-45.6-.3-.8-.4-6-.3-11.5 0-5.6-.8-17.5-2-26.5-1.1-9.1-2.2-18.5-2.5-21-1.3-10.8-3.7-22.3-5.9-28.2-1.3-3.5-3.4-9.2-4.6-12.8-1.2-3.6-4.3-9.2-6.8-12.5-2.4-3.3-4.6-6.5-4.9-7.1-.2-.6 2.3-6.9 5.5-14 7.4-16 9.4-20.6 11.7-26.9 1-2.8 2.2-5.5 2.6-6 .4-.6 3.2-8.6 6.3-17.8 6-18.2 7.7-28.7 5.7-35-1.4-4.2-6.9-6.7-15-6.7-5.7 0-16.8 2.5-18.9 4.2-1.4 1.2-1.4 1 1.4-14.2 2.1-11.1 1.8-9.7 5.4-31 3.9-23.3 5.4-31.1 8.6-43 1.4-5.2 2.7-10 2.8-10.5.2-.6.8-2.3 1.4-3.8.7-1.6 1.2-3.5 1.2-4.3 0-.9 1.8-7.6 4-15 7.7-25.7 8.2-32.2 2.9-37-2.9-2.6-11.5-2.7-23.9-.3-18.3 3.5-24.4 5.3-40.5 11.7-5.5 2.3-14.3 5.7-19.5 7.7-5.2 2-10 3.9-10.7 4.2-2.6 1-11.4-21.4-14.3-36.5-1.4-7.1-3.2-8.7-8.3-7.6-6.6 1.4-14.1 7.5-23.2 18.9-2.2 2.7-4.3 5.2-4.6 5.5-2.2 2-14.2 17.8-17.9 23.5-2.5 3.9-5.3 7.9-6.2 8.9-1 1.1-1.8 2.4-1.8 2.8 0 .5-.9 1.8-1.9 2.9-3.2 3.4-7.6 12.7-12.6 26.4-4.7 12.8-5.4 15-5.5 16 0 .3-.6 1.8-1.4 3.4-.9 1.6-1.3 3.1-1 3.4.3.3.2 1.2-.2 1.9-.5.7-.9 1.7-1.1 2.3-.1.5-.4 1.9-.7 3-.2 1.1-1.2 5.4-2.1 9.5-1 4.1-2.8 11.3-4.1 15.9-1.3 4.6-2.6 9.3-2.8 10.5-.2 1.1-.7 3.2-1 4.6-.3 1.4-.8 5-1.1 8.1-.3 3.1-.7 6.5-.9 7.5-.2 1.1-.7 4.6-1.1 7.9-.4 3.2-.9 6.8-1.1 8-.2 1.1-.6 4.9-.9 8.5-.3 3.6-.8 9.2-1.1 12.5-.3 3.3-.6 8.5-.8 11.5-.2 5.1-3.7 13.9-5.9 14.8-.4.2-.5.8-.1 1.3.3.5.1.9-.4.9s-1.3 1-1.7 2.2c-.4 1.3-.8 2.5-.9 2.8-.1.3-.7 1.4-1.3 2.6-.7 1.2-2.2 7.2-3.4 13.5-2.8 14.8-2.5 13.9-4.8 13.9-2 0-12.3 7.1-17.9 12.4-9 8.3-16 21.8-20.2 38.6-1.1 4.5-4.9 39.1-5.5 49.4-.2 4.3-.6 8.1-.9 8.4-.3.3-.6 1.6-.6 2.9 0 2.8-6.6 35.7-8.5 42.8-1.3 4.6-3.1 17.1-2.7 18.7.1.3.3 2.6.6 5.1.2 2.4 1.3 6.5 2.5 9.2 1.1 2.6 2.1 5.3 2.1 5.9 0 1.9 8.9 18.7 12 22.5 2.9 3.8 7 14 7 17.6 0 1.2.4 2.5.9 3 1.4 1.4 2.7 14.7 2.5 25-.3 17.8-2.5 34.4-6.3 48-8.1 29-10.8 37.6-15.1 49.1-2.8 7.2-5 13.5-5 13.9 0 .5-3.9 8.8-8.7 18.4-4.8 9.7-8.6 17.9-8.5 18.3.1.5-.2.8-.7.8-.5 0-2.7 3.3-4.9 7.2-2.1 4-6.4 11.2-9.5 16l-5.7 8.7-6.2-3.6c-12.6-7.3-43.3-28.2-45.8-31.2-.3-.3-2.1-1.8-4.2-3.3-2-1.5-4.2-3.3-5-4-.7-.7-4.7-4.2-8.8-7.8-13-11.3-33.9-32.8-43-44.1-1.9-2.4-4.3-5.1-5.2-6.1-1-1-1.8-2.2-1.8-2.7s-.4-1.1-.9-1.3c-1.3-.5-16.7-22.1-24.2-33.8-22.2-35.1-41.9-80.7-50.4-116.8-1.9-7.8-4.6-20.3-5.1-22.7-.2-1.7-.7-3.7-.9-4.5-.2-.8-.6-3.3-1-5.5-.3-2.2-1-6.7-1.5-10-2.8-19-3.5-30.1-3.5-58 0-23.5.7-39.5 1.9-46.1.2-1 .7-4.6 1-7.9 2.3-20.4 9.2-50.8 16.6-73.5 3.7-11.3 12.9-35 14.2-36.7.5-.7.7-1.6.4-2.2-.3-.5-.2-1.1.2-1.3.5-.1 4.1-6.8 8.1-14.8 7.4-15 7.7-15.6 16.7-30.5 3-5 6-9.9 6.7-11 .7-1.1 2.4-3.6 4-5.6 1.5-2 2.7-4.1 2.7-4.7 0-.6.3-1.2.8-1.4.4-.2 3.6-4.1 7.1-8.8 16.1-21.5 39.3-46.8 57-62 3.6-3 7.2-6.2 8.1-7 2.9-2.7 24.5-19.3 29.7-22.8 28.8-19.6 65.2-38.3 93.8-48.2 2.8-.9 8.4-2.9 12.5-4.3 16.9-5.8 45.1-12.4 64.9-15.3 2.5-.4 5.4-.8 6.3-1 2.1-.3 13.8-1.5 18.3-1.8 1.9-.2 3.7-.5 4-.8.7-.7 66.2-.2 69.5.5zm-37.7 118.2c.9 6.1 5.9 18.8 10.2 25.7l3.6 5.6 7.7-5.2c18.4-12.7 55.6-30.6 63.4-30.6 2.8 0 2.3 4-2.1 15.3-3.8 9.8-6.1 17.7-7.6 26.2-1.3 7.5-1.6 9-4 20-6.1 28.3-11.1 70.8-10.6 89.8l.1 2.9 3.3-2.1c1.7-1.2 5.5-3.3 8.2-4.8 2.8-1.4 5.2-2.8 5.5-3.2.3-.3 1.2-.7 2-.9.8-.2 5.2-2.1 9.7-4.2 6.8-3.2 8.5-3.6 9.9-2.6 2.7 2 1.2 6.7-6.7 21.1-3.9 7.2-9.1 17-11.4 22-2.3 4.9-7 14.6-10.4 21.3-3.3 6.8-5.8 12.9-5.4 13.5.3.5.2.7-.3.4-.5-.3-4.6 6.3-8.9 14.6-7.2 13.6-8.3 15.2-10.5 15.1-1.4-.1-8.1-.6-15-1.3-18.1-1.7-51.5-1.4-62 .6-14.1 2.6-14.7 2.6-19.1-1.4-5.7-5.2-13.3-15.9-17.5-24.7-3.3-6.9-3.6-8.5-3.6-15.9 0-10.6.7-17.5 2.2-21.2 2.5-6.3 3.8-10.3 3.4-10.7-.5-.6 12.4-16.8 13.5-16.8.4 0 1.1-4.1 1.5-9 .4-5 1.1-10.1 1.6-11.4.5-1.3 1.1-5.9 1.5-10.2 1.1-13.4 7.5-41.2 15-65.6 2.3-7.2 10.8-27.4 16.2-38.3 9.4-18.9 15.3-23.8 16.6-14zM329.5 408c4.5 1.7 15.4 12.9 16.5 16.9 1.9 7.2 2.2 9.8 2.5 20.1.4 16.1-3.3 30.6-9.5 36.9-8.5 8.7-14.4 12.1-20.7 12.1-7.1 0-11.1-2.2-13.4-7.6-1.9-4.1-2-5.9-1.5-16.8 1.5-29.2 8.1-57.9 14.3-61.5 2.3-1.3 8.4-1.4 11.8-.1zm202.6 0c6.5 3.5 12.7 30 14.5 61.4.6 11.1.4 12.7-1.4 17-2.4 5.4-6.4 7.6-13.5 7.6-6.3 0-12.2-3.4-20.7-12.1-6-6.1-9.5-19.1-9.9-37.3-.3-11.5-.2-11.6 3.4-19.1 3.7-7.7 9.4-14.2 14.9-16.9 3.6-1.8 9.9-2.1 12.7-.6zm-93.5 37.4c11.5 1.6 14.5 2.8 30.1 12.3 12.4 7.5 27.3 24.9 30.5 35.6 1.1 3.5.9 3.9-1.8 6.8-1.6 1.7-4.9 4.5-7.4 6.2-2.5 1.7-6.1 4.4-8 6-2.9 2.5-25.9 23.8-30.7 28.6-.8.8-5.1 5.8-9.5 11.2-4.4 5.4-8.8 10.1-9.8 10.4-1.3.4-3.6-1.3-8.1-6.1-3.5-3.7-8.4-8.5-10.9-10.8-2.5-2.3-8.3-7.7-13-12.2-12-11.5-13.8-12.9-27.3-22.5-14.8-10.5-15.5-11.1-16.3-14.6-1.8-6.8 12.5-25 28.5-36.3 5-3.5 9.1-6.8 9.1-7.3 0-.4.4-.6.9-.3s3.7-.7 7.2-2.3c3.5-1.6 9-3.5 12.2-4.2 3.1-.8 5.7-1.6 5.7-1.9 0-.8 4.9-.4 18.6 1.4zm50.6 117.9c20.2 20.4 29.8 35.6 41.3 65.2 4.7 12.1 6.3 17.7 11.1 39 4.6 20.2 3.4 41.2-3.2 59.6-1.4 3.8-2.2 7.5-1.8 8.2.4.6.4.9-.1.5-.5-.5-2.4 2.7-4.3 7-6.1 13.6-19.5 28.7-30.3 34.2-3.2 1.7-10.9 3.6-21.3 5.4-1.7.3-3.5.2-4-.3-.6-.5-2.4-1.1-4.1-1.5-7.4-1.8-21.2-15.4-26.6-26.2-1.9-3.8-3.7-7.1-4.2-7.2-.4-.2-.5-.7-.3-1 .2-.4-.2-3.6-1-7.2-2.5-11.8-1.2-67.5 2.1-84.9.1-.9.6-4.7 1-8.4.3-3.7.8-7.6 1-8.5.1-.9.6-3.7 1-6.2s.9-5.2 1-6c1.6-8.5 11.2-37.4 13.7-41.1.8-1.4 3.2-5.7 5.1-9.6 2-3.9 4.1-7.4 4.7-7.8.6-.3.8-1.1.5-1.6-.4-.5-.2-.9.3-.9s2.3-1.3 3.8-2.9c1.6-1.5 3.6-3.1 4.4-3.3 2.1-.7 6.2 1.5 10.2 5.5zm-100.9-.1c11 12.5 25.8 51.3 28.2 73.8.6 6.2 1.5 13.4 2 16.5 3.5 22.9 4.7 73.5 2 86-3.9 18.3-19.6 37.6-34 42-4.1 1.2-5.7 1.1-14.2-.6-5.2-1.1-11.2-2.8-13.3-3.9-11.2-5.7-24-20.5-30.7-35.5-3.6-8-8.7-22.8-9.8-28.4-2.8-14.5-2.7-31.1.2-45.1 4-19.6 11.6-41.5 21.5-61.8 4.8-9.9 15.5-26.5 16.7-25.8.4.3 1.5-.8 2.4-2.3.9-1.6 3.4-4.4 5.6-6.4 2.2-1.9 3.7-3.8 3.4-4.1-.6-.6 1.6-3 6.5-6.9 5.3-4.1 8-3.6 13.5 2.5z"/></svg>