<svg version="1" xmlns="http://www.w3.org/2000/svg" width="560" height="560" viewBox="0 0 420.000000 420.000000"><path d="M220 .5c0 .2 1.2 1.1 2.8 1.9 2.6 1.5 2.4 1.5-3.3.9-33.4-3.9-57.8 10-64.9 36.9-1.4 5.3-1.5 20.6-.2 28.1 1.5 9 9.3 25.4 16.2 34.5 1.9 2.5 3.3 4.6 3.1 4.8-.1.2-4.1-1.2-8.7-3.1-4.7-1.9-9.7-3.6-11.2-3.9-1.5-.2-3.1-.7-3.5-.9-2.3-1.4-20.7-2.4-25.3-1.4-9.9 2.2-16.4 5.7-23.1 12.2-8.6 8.4-14.6 24.5-14.8 39.4-.1 4.6-.3 5.2-1.9 4.6-5.7-2.3-8.1-1.8-12.1 2.1l-3.8 3.9-2.9-1.8c-2.9-1.8-10.8-4.4-15.4-5-1.8-.3-2.6-1.2-3.1-3.5-.3-1.6-1.5-4.5-2.6-6.4-2.5-4.3-7.5-5.1-10.2-1.6-1 1.3-1.9 2.6-2 3-.1.4-.8 2.3-1.6 4.2-.8 2-1.5 4.7-1.5 6.1 0 1.4-1 3.4-2.3 4.4-5.2 4.5-6.4 5.8-9.9 10.1C6.7 183.9.9 205 1.5 229c.2 7.4.6 15.1.9 17 1.4 10.4 6 25.8 10.2 34.3 2.5 5.1 2 6.4-.9 1.9l-1.8-2.7.6 4c1.5 9.2 12.9 31.1 24.8 47.6 28.9 40.3 73.6 70.3 122.7 82.4 13.3 3.3 15.6 3.8 27.5 5.2 8 1 38.1 1 47.5 0 45.1-4.7 90.5-26.6 124.1-59.9 30.7-30.4 52.4-72.2 58.9-113.8 2.1-12.8 2.2-14.7 2.3-32.5.2-16.4-.4-27.9-1.8-34.5-.2-1.3-.7-4.2-1-6.5-1-6.9-6.5-26.6-10-35.5-9.4-24.4-23.3-47.7-38.3-64.3-4.6-5.1-18.3-18.7-20.8-20.7-1.1-.8-4.2-3.3-6.9-5.6-27.2-22.4-67.9-39.5-104-43.9C226.9.5 220 0 220 .5zm59 125.8c.8.3 3.1.8 5 1.1 8 1.2 12.4 3.1 13 5.6 1.4 5.2-.4 25.2-3.1 35-6.3 22.7-21.3 35.3-41.2 34.4-6.5-.3-18.5-3.6-23.4-6.5-1.8-1-5-2.9-7-4.1-3.5-2.1-3.6-2.1-2.9-.2 1.8 4.2 7.5 21.1 8 23.4.3 1.4 1.3 5.9 2.1 10 3.4 16.4 2.4 42.1-2.1 55.8-6.8 20.5-19.8 34.5-37.3 40.2-6.1 1.9-8.6 2.2-17.3 1.8-19-.9-37.1-9.5-54.5-25.9l-5.8-5.4v-12c0-10.5 1-22.9 2-24.5.2-.3.6-2.1.9-4.1.3-2 1.9-7.8 3.7-13 18.8-56.6 68.8-101.3 123.9-110.8 10-1.8 32.1-2.2 36-.8z"/><path d="M134.5 47.6c-2.3 2.4-1.8 4.4 2 8 3.8 3.5 6.7 3.6 8.9.1 2.8-4.4-7.1-11.8-10.9-8.1zM122.1 68.1c-1.7 1-3.2 2.7-3.3 3.6 0 1-.2 2.5-.3 3.3-.3 2.5 2.4 8.3 5.3 11.3 6.5 6.9 18 9.4 22.5 4.9 1.6-1.6 2.2-3.4 2.2-6.6 0-11.3-17.2-22.1-26.4-16.5zM59.1 103.2c-1.5 4.4-.5 8.9 3.1 13.3 5.2 6.2 10.8 6.7 12.2 1 1.7-6.7-5.3-17.5-11.3-17.5-2.4 0-3.1.6-4 3.2z"/></svg>