<svg width="32" height="32" viewBox="0 0 32 32" fill="none" xmlns="http://www.w3.org/2000/svg">
<g id="mini-vertical-logo-onecolor-blue-atlassian">
<g id="Group">
<path id="Vector" d="M17.8697 30.932C17.8697 30.3122 17.5381 30.024 16.6301 29.8366C16.1256 29.7213 15.9959 29.606 15.9959 29.4474C15.9959 29.2456 16.1832 29.1591 16.5148 29.1591C16.9183 29.1591 17.3219 29.2889 17.6967 29.4474V28.6402C17.4228 28.5105 17.0192 28.3952 16.5436 28.3952C15.6355 28.3952 15.1599 28.7844 15.1599 29.433C15.1599 29.9519 15.4049 30.3555 16.3418 30.5429C16.9039 30.6582 17.0192 30.7447 17.0192 30.932C17.0192 31.1194 16.9039 31.2347 16.5003 31.2347C16.0391 31.2347 15.4914 31.0762 15.1454 30.86V31.7104C15.4337 31.8545 15.8085 31.9987 16.5003 31.9987C17.4661 32.0275 17.8697 31.5807 17.8697 30.932Z" fill="white"/>
<path id="Vector_2" d="M21.2569 30.932C21.2569 30.3122 20.9254 30.024 20.0173 29.8366C19.5128 29.7213 19.3831 29.606 19.3831 29.4474C19.3831 29.2456 19.5705 29.1591 19.902 29.1591C20.3056 29.1591 20.7092 29.2889 21.0839 29.4474V28.6402C20.8101 28.5105 20.4065 28.3952 19.9308 28.3952C19.0228 28.3952 18.5471 28.7844 18.5471 29.433C18.5471 29.9519 18.7922 30.3555 19.729 30.5429C20.2912 30.6582 20.4065 30.7447 20.4065 30.932C20.4065 31.1194 20.2912 31.2347 19.8876 31.2347C19.4264 31.2347 18.8786 31.0762 18.5327 30.86V31.7104C18.821 31.8545 19.1958 31.9987 19.8876 31.9987C20.8677 32.0275 21.2569 31.5807 21.2569 30.932Z" fill="white"/>
<g id="Group_2">
<g id="Group_3">
<g id="Group_4">
<path id="Vector_3" d="M27.772 28.4673V31.9698H28.5215V29.2889L28.8386 30.0096L29.8908 31.9698H30.8277V28.4673H30.0782V30.7303L29.8043 30.0672L28.9539 28.4673H27.772Z" fill="white"/>
<path id="Vector_4" d="M23.0298 28.4673H22.2082V31.9698H23.0298V28.4673Z" fill="white"/>
<path id="Vector_5" d="M8.81775 28.4673V31.9698H10.4897L10.7492 31.2059H9.63932V28.4673H8.81775Z" fill="white"/>
<path id="Vector_6" d="M5.50256 28.4673V29.2168H6.41064V31.9698H7.23222V29.2168H8.19794V28.4673H5.50256Z" fill="white"/>
</g>
</g>
<path id="Vector_7" d="M4.30622 28.4673H3.22518L2 31.9698H2.9369L3.10988 31.3789C3.31167 31.4365 3.54229 31.4798 3.7585 31.4798C3.97471 31.4798 4.20533 31.4509 4.40713 31.3789L4.58008 31.9698H5.51699L4.30622 28.4673ZM3.77291 30.7447C3.61436 30.7447 3.47022 30.7158 3.32609 30.687L3.77291 29.1591L4.21974 30.687C4.0756 30.7303 3.91705 30.7447 3.77291 30.7447Z" fill="white"/>
<path id="Vector_8" d="M13.387 28.4673H12.3059L11.0807 31.9698H12.0177L12.1906 31.3789C12.3924 31.4365 12.623 31.4798 12.8393 31.4798C13.0555 31.4798 13.2861 31.4509 13.4879 31.3789L13.6608 31.9698H14.5977L13.387 28.4673ZM12.8393 30.7447C12.6807 30.7447 12.5366 30.7158 12.3924 30.687L12.8393 29.1591L13.2861 30.687C13.1564 30.7303 12.9978 30.7447 12.8393 30.7447Z" fill="white"/>
<path id="Vector_9" d="M25.9702 28.4673H24.8892L23.664 31.9698H24.6009L24.7739 31.3789C24.9757 31.4365 25.2063 31.4798 25.4225 31.4798C25.6531 31.4798 25.8693 31.4509 26.0711 31.3789L26.2441 31.9698H27.181L25.9702 28.4673ZM25.4225 30.7447C25.2639 30.7447 25.1198 30.7158 24.9757 30.687L25.4225 29.1591L25.8693 30.687C25.7252 30.7303 25.581 30.7447 25.4225 30.7447Z" fill="white"/>
</g>
<g id="Group_5">
<path id="Vector_10" d="M10.8501 12.2374C10.7059 12.0788 10.5041 11.9924 10.3023 12.0212C10.1294 12.05 9.97082 12.1797 9.89875 12.3383L3.3693 25.3972C3.22516 25.6855 3.34048 26.017 3.62876 26.1611C3.71524 26.2044 3.80173 26.2188 3.88821 26.2188H12.9833C13.1995 26.2188 13.4013 26.1035 13.4878 25.9017C15.3904 21.9523 14.2085 15.8264 10.8501 12.2374Z" fill="white"/>
<path id="Vector_11" d="M29.4727 25.3972C29.3574 25.1521 17.2354 0.908071 16.9327 0.30269C16.8462 0.129724 16.6876 0.0144138 16.5003 0H16.4858C16.2696 0.0144138 16.0823 0.129724 15.9669 0.317104C12.6806 5.52049 12.3058 11.8049 14.9724 17.1236L19.3542 25.9016C19.4551 26.1034 19.6425 26.2187 19.8731 26.2187H28.9682C29.2853 26.2187 29.5448 25.9593 29.5448 25.6422C29.5448 25.5557 29.5159 25.4692 29.4727 25.3972Z" fill="white"/>
</g>
</g>
</g>
</svg>
