<svg width="32" height="32" viewBox="0 0 32 32" fill="none" xmlns="http://www.w3.org/2000/svg">
<g id="mini-icon-onecolor-white-atlassian">
<g id="Group">
<path id="Vector" d="M10.9015 15.2C10.7924 15.0546 10.5742 14.9818 10.3924 14.9818C10.247 15.0182 10.1015 15.1273 10.0288 15.2727L4.06515 27.2364C3.91969 27.4909 4.02879 27.8182 4.28333 27.9273C4.35606 27.9637 4.42879 28 4.50152 28H12.8288C13.0106 28 13.2288 27.8909 13.3015 27.7091C15.047 24.1091 13.9561 18.4728 10.9015 15.2Z" fill="white"/>
<path id="Vector_2" d="M27.9561 27.2364C27.847 27.0182 16.7561 4.83638 16.5015 4.29093C16.4288 4.14547 16.2833 4.03636 16.1015 4H16.0651C15.8833 4 15.7015 4.10911 15.5924 4.29093C12.5742 9.05456 12.247 14.8 14.6833 19.6727L18.6833 27.7091C18.7561 27.8909 18.9379 28 19.1561 28H27.4833C27.7742 28 27.9924 27.7818 27.9924 27.4909C27.9924 27.3818 27.9924 27.3091 27.9561 27.2364Z" fill="white"/>
</g>
</g>
</svg>
