<svg id="Layer_1" data-name="Layer 1" xmlns="http://www.w3.org/2000/svg" width="24" height="24" viewBox="-3 -3 30 30"><defs><style>.cls-1{fill:#fff;}</style></defs><path class="cls-1" d="M16,28V23.35a7.38,7.38,0,0,0,6.86-10.06A6.93,6.93,0,0,0,18.7,9.14,7.38,7.38,0,0,0,8.64,16H4A12,12,0,0,1,19.82,4.59a11.61,11.61,0,0,1,7.57,7.58A12,12,0,0,1,16,28Z" transform="translate(-4 -4)"/><polygon class="cls-1" points="12.01 19.36 7.38 19.36 7.38 14.74 7.38 14.74 12.01 14.74 12.01 14.74 12.01 19.36"/><polygon class="cls-1" points="7.38 22.93 3.82 22.93 3.82 22.93 3.82 19.36 7.38 19.36 7.38 22.93"/><path class="cls-1" d="M7.82,23.36h-3v-3h3Z" transform="translate(-4 -4)"/></svg>