<svg xmlns="http://www.w3.org/2000/svg" id="Layer_1" width="17.37" height="17.37" data-name="Layer 1" viewBox="-5 -2 28 28"><defs><style>.cls-1{fill:none}.cls-2{fill:#fff}</style></defs><path d="M7.31,23.36,21.51,9.07a.55.55,0,0,1,.92.3l2.25,14V4H7.31Zm2.94-18.9A.53.53,0,0,1,10.69,4a.54.54,0,0,1,.57.28l2.55,4.77L7.88,19.67Zm5.26,3.21a.56.56,0,0,1,.48-.3.53.53,0,0,1,.48.3l1.82,3.48L7.52,22Z" class="cls-1" transform="translate(-7.31 -4)"/><path d="M16,28h8.72V23.36l-7.93,4.43A1.58,1.58,0,0,1,16,28Z" class="cls-1" transform="translate(-7.31 -4)"/><path d="M7.31,23.36V28H16a1.58,1.58,0,0,1-.79-.21Z" class="cls-1" transform="translate(-7.31 -4)"/><path d="M22.06,8.94a.55.55,0,0,0-.55.13L7.31,23.36l7.86,4.43A1.58,1.58,0,0,0,16,28h0a1.58,1.58,0,0,0,.79-.21l7.93-4.43-2.25-14A.55.55,0,0,0,22.06,8.94Z" class="cls-2" transform="translate(-7.31 -4)"/><path d="M16.47,7.67a.53.53,0,0,0-.48-.3.56.56,0,0,0-.48.3L7.52,22,18.29,11.15Z" class="cls-2" transform="translate(-7.31 -4)"/><path d="M11.26,4.29A.54.54,0,0,0,10.69,4a.53.53,0,0,0-.44.45L7.88,19.67,13.81,9.06Z" class="cls-2" transform="translate(-7.31 -4)"/></svg>