<svg xmlns="http://www.w3.org/2000/svg" id="Layer_1" width="19.22" height="19.22" data-name="Layer 1" viewBox="-4.5 -4.5 28.22 28.22"><defs><style>.cls-1{fill:#fff}</style></defs><path d="M16.49,4.43c-2.7,0-3.73-1.37-6.4-1.37-2.18,0-3.21.89-4.94,1.23V3.75a1.38,1.38,0,1,0-2.75,0V20.22a1.38,1.38,0,0,0,2.75,0V7C6.88,6.7,7.91,5.8,10.09,5.8c2.69,0,3.7,1.38,6.4,1.38a7,7,0,0,0,2.38-.4V15a7.28,7.28,0,0,1-2.38.39c-2.7,0-3.73-1.37-6.4-1.37a7.37,7.37,0,0,0-2.2.34v2.75a6.78,6.78,0,0,1,2.2-.34c2.69,0,3.7,1.37,6.4,1.37,1.59,0,2.42-.41,5.13-1.37V3.06C18.91,4,18.08,4.43,16.49,4.43Z" class="cls-1" transform="translate(-2.4 -2.37)"/></svg>