<svg id="Layer_1" data-name="Layer 1" xmlns="http://www.w3.org/2000/svg" width="20.68" height="20.68" viewBox="-2.5 -2.5 25.68 28.99"><defs><style>.cls-1{fill:#fff;}</style></defs><path class="cls-1" d="M26.28,20.79c0,.34-.29.48-.62.63a11.21,11.21,0,0,1-4.32,1.1c-2.16,0-3.17-1.34-5.76-1.34a13.7,13.7,0,0,0-5.42,1.39c-.1.05-.19.05-.29.1v3.64a1.56,1.56,0,0,1-1.58,1.63,1.62,1.62,0,0,1-1.63-1.63V8.75A2.68,2.68,0,1,1,11,6.64,2.55,2.55,0,0,1,9.92,8.75v1.49a14.07,14.07,0,0,1,5.37-1.35c3.06,0,4.58,1.3,5.95,1.3,1.83,0,3.84-1.3,4.32-1.3a.69.69,0,0,1,.72.63V20.79Z" transform="translate(-5.6 -3.95)"/></svg>