<svg xmlns="http://www.w3.org/2000/svg" viewBox="0 0 535.15 136.1"><defs><style>.cls-1{font-size:100px;font-family:'Sen', sans-serif;font-weight:700;}.cls-1,.cls-3{fill:#fff;}.cls-2{fill:#ab0000;}.cls-4{fill:none;stroke:#fff;stroke-width:5px;}</style></defs><g id="Layer_2" data-name="Layer 2"><g id="Layer_1-2" data-name="Layer 1"><text class="cls-1" transform="translate(150.39 99.43)">RTBYTE</text><path class="cls-2" d="M133.42,73c0-.52.07-1,.1-1.56C133.49,72,133.46,72.46,133.42,73Z"/><path class="cls-2" d="M133.07,76.4c.06-.43.11-.87.16-1.31C133.19,75.52,133.13,76,133.07,76.4Z"/><path class="cls-2" d="M132.9,77.67c.06-.42.12-.85.17-1.27C133,76.82,133,77.25,132.9,77.67Z"/><path class="cls-2" d="M131.54,84.43c.12-.47.23-.94.35-1.42C131.77,83.49,131.66,84,131.54,84.43Z"/><path class="cls-2" d="M131.11,86c.15-.52.3-1,.43-1.57C131.41,85,131.26,85.48,131.11,86Z"/><path class="cls-2" d="M130.65,87.54c.17-.51.32-1,.46-1.54C131,86.51,130.82,87,130.65,87.54Z"/><path class="cls-2" d="M130.16,89.07c.17-.51.34-1,.49-1.53C130.5,88.05,130.33,88.57,130.16,89.07Z"/><path class="cls-2" d="M129.78,90.14c.13-.35.26-.7.38-1.07C130,89.44,129.91,89.79,129.78,90.14Z"/><path class="cls-2" d="M129.1,92c.12-.31.25-.62.36-1C129.35,91.34,129.22,91.66,129.1,92Z"/><path class="cls-2" d="M127.83,95c.19-.41.36-.8.53-1.21C128.19,94.18,128,94.58,127.83,95Z"/><path class="cls-2" d="M126.5,97.76c.21-.41.42-.82.61-1.24C126.92,96.93,126.71,97.35,126.5,97.76Z"/><path class="cls-2" d="M125.73,99.22c.24-.44.48-.88.7-1.33C126.2,98.34,126,98.78,125.73,99.22Z"/><path class="cls-2" d="M125.08,100.39q.3-.51.57-1C125.47,99.71,125.27,100.05,125.08,100.39Z"/><path class="cls-2" d="M133.6,68.05c0,.41,0,.82,0,1.23s0,.64,0,1,0,.79,0,1.18-.06,1-.1,1.56-.07.85-.11,1.26c0,.25,0,.51-.07.76a.28.28,0,0,1,0,.09c0,.44-.1.88-.16,1.31s-.11.85-.17,1.27c0,.24-.07.49-.11.73-.14.88-.29,1.74-.47,2.6,0,.21-.08.42-.13.63-.09.46-.2.93-.3,1.38s-.23.95-.35,1.42-.28,1-.43,1.57-.29,1-.46,1.54-.32,1-.49,1.53-.25.72-.38,1.07-.21.6-.32.88-.24.64-.36,1c-.24.61-.48,1.21-.74,1.8-.17.41-.34.8-.53,1.21s-.47,1-.72,1.54-.4.83-.61,1.24l-.07.13c-.22.45-.46.89-.7,1.33a1.09,1.09,0,0,1-.08.15q-.27.51-.57,1c-.25.45-.51.9-.78,1.33s-.35.58-.53.87-.39.62-.59.93c-.4.62-.81,1.23-1.23,1.84s-.85,1.2-1.29,1.79L120,108l-.64.82-.15.19c-.43.53-.86,1-1.3,1.56l-.64.75a3,3,0,0,1-.24.26l-.57.64-.76.81c-.17.19-.35.37-.53.56-.58.61-1.18,1.2-1.79,1.78l-.81.76c-.26.25-.54.5-.81.74-.55.49-1.1,1-1.67,1.44l-.68.57-.41.33-.62.49-.88.67c-.21.17-.44.33-.66.5s-.32.24-.48.34l-.64.46c-.6.42-1.21.83-1.83,1.24l-.93.6c-.62.39-1.26.77-1.89,1.15l-.86.5c-.68.38-1.37.75-2.06,1.1a114.58,114.58,0,0,1-5.37-10.75c-.67-1.53-1.35-3.06-2.06-4.57-1.4-3-3-5.86-4.2-8.9a48.91,48.91,0,0,1-1.63-6.3,9.84,9.84,0,0,1,.5-6.11A29.76,29.76,0,0,1,86.76,87a10.39,10.39,0,0,0,1.57-6,21.11,21.11,0,0,0-.67-3.31,19.79,19.79,0,0,1-1-6.91,3,3,0,0,0,0-.6c-.19-1.38-.37-2.76-.56-4.14a27.3,27.3,0,0,0-.55-3.64C85,60.31,84.46,58.19,83,56.51a.77.77,0,0,1-.07-1,29.7,29.7,0,0,0,1.28-2.74c1-2.49,1.93-5,2.81-7.51a12.78,12.78,0,0,0,.59-2.94c.16-1.42-.33-2-2-2a21.72,21.72,0,0,0-3.3.41c.07-.42.16-1,.26-1.52.9-4.89,1.54-9.83,3-14.6.56-1.8,1-3.64,1.49-5.48a1.65,1.65,0,0,0-1.8-2.27,23.18,23.18,0,0,0-7.11,1.56c-2,.73-3.92,1.54-5.9,2.32a1.44,1.44,0,0,1-.18-.29c-.6-1.79-1.24-3.58-1.78-5.4-.3-1-.8-1.36-1.71-.82A8,8,0,0,0,66.33,16c-1.88,2.36-3.67,4.81-5.46,7.25a11.37,11.37,0,0,0-1.3,2.24,65.35,65.35,0,0,0-2.72,8.44,74.55,74.55,0,0,0-2,13.6,4.08,4.08,0,0,1-.6,1.71A12.59,12.59,0,0,0,52.48,55a7,7,0,0,0-.85.33A10.06,10.06,0,0,0,47,60.78a22.7,22.7,0,0,0-.77,3.61,36.76,36.76,0,0,0-.56,4.16A55.82,55.82,0,0,1,44.38,77a22.8,22.8,0,0,0-.65,4.23A10.56,10.56,0,0,0,46,87a10.38,10.38,0,0,1,1.59,3.92,19.77,19.77,0,0,1-.23,8.25c-.77,3.34-1.82,6.62-2.87,9.89a46.1,46.1,0,0,1-4.76,9.72c-1.27,2.12-2.56,4.24-3.85,6.35a.05.05,0,0,1-.05,0c-.3-.16-.59-.33-.88-.5l-.92-.55-.9-.56-.9-.58-.89-.59-.88-.61-.87-.63c-.86-.62-1.7-1.27-2.54-1.94s-1.64-1.35-2.44-2.06c-.52-.47-1.05-.95-1.56-1.43l-.77-.74-.76-.75c-.48-.49-1-1-1.43-1.49L20,112.6c-.47-.51-.93-1-1.39-1.54l-.69-.81-.68-.82c-.44-.55-.89-1.11-1.31-1.67-.22-.28-.42-.55-.62-.82-.44-.58-.86-1.17-1.26-1.78-.2-.29-.41-.58-.6-.88-.34-.51-.67-1-1-1.55-.08-.12-.16-.24-.23-.37s-.29-.47-.43-.71c-.26-.41-.51-.84-.75-1.28s-.38-.67-.56-1a.54.54,0,0,1-.07-.13c-.22-.4-.44-.81-.64-1.22a1.74,1.74,0,0,1-.1-.19C9.42,97.39,9.2,97,9,96.53c0,0-.05-.1-.08-.16-.2-.4-.39-.81-.57-1.22-.46-1-.9-2-1.3-3.06-.16-.4-.31-.79-.46-1.19-.43-1.14-.82-2.3-1.18-3.49Q5.2,86.77,5,86.09c-.17-.58-.33-1.17-.48-1.76s-.25-1-.36-1.48-.24-1-.35-1.59-.2-1-.29-1.54a.36.36,0,0,1,0-.11c-.09-.47-.17-1-.24-1.43,0-.15,0-.3-.07-.46q-.1-.66-.18-1.32c-.06-.47-.12-.93-.16-1.4,0-.2-.05-.42-.07-.63,0-.4-.07-.8-.1-1.2a.49.49,0,0,1,0-.12c0-.52-.08-1-.1-1.58v0q0-.69-.06-1.38c0-.27,0-.54,0-.82s0-.78,0-1.17a65.55,65.55,0,0,1,131.1,0Z"/><path class="cls-3" d="M53.39,74.1c1-1.43,1.1-3.17,1.25-5a6.29,6.29,0,0,1-.17-1.19,4.7,4.7,0,0,0-2.31-4.2c-1.28-.87-2.38-.58-2.92.85a27.53,27.53,0,0,0-1.46,9.56,2,2,0,0,0,2.48,2.12A4.59,4.59,0,0,0,53.39,74.1Zm-2.21,38.35c1.42,3.33,3.38,6.07,7.28,6.76a3.61,3.61,0,0,0,2.62-.4,9.29,9.29,0,0,0,3.85-4.64c.7-1.81.57-3.69.68-5.57-.15-2.25-.23-4.5-.45-6.75a56.75,56.75,0,0,0-.87-6.24,31,31,0,0,0-1.48-4.71,11.67,11.67,0,0,0-2.68-4.63c-.66-.6-1-.67-1.67,0S57,87.83,56.31,88.63c-.3.31-.64.59-.9.92a28.49,28.49,0,0,0-4.2,8.68,31,31,0,0,0-1.39,5.91A16.34,16.34,0,0,0,51.18,112.45Zm20,5.39a4.3,4.3,0,0,0,3,1.47,8.11,8.11,0,0,0,6.06-3.11,16,16,0,0,0,2.53-4.71,14.41,14.41,0,0,0,.93-7.58,41.64,41.64,0,0,0-2-7.8,27.44,27.44,0,0,0-6-9.43,3,3,0,0,0-.94-.7,1.37,1.37,0,0,0-1,.06c-1.49,1.06-2.11,2.76-2.76,4.32a27.32,27.32,0,0,0-2.18,8.56c-.23,3.21-.59,6.41-.89,9.61l.19,0c0,.7,0,1.39,0,2.09A9,9,0,0,0,71.19,117.84Zm-1.65-57.4c1.43.06,2.85.16,4.27.3s1.31.16,1.92-1c.46-.92,1-1.8,1.42-2.71q2.19-4.34,4.34-8.68c.45-.92.94-1.83,1.36-2.77a2.23,2.23,0,0,0,0-.82,2.29,2.29,0,0,0-.83,0c-.94.39-1.86.82-2.77,1.27-.75.38-1.48.83-2.38,1.34a86,86,0,0,1,4-23.06A35.87,35.87,0,0,0,70,29.61a11.28,11.28,0,0,1-2.13-5c-.09-.48-.34-.49-.65-.29a1.93,1.93,0,0,0-.53.6,42.08,42.08,0,0,0-4.28,10A78.52,78.52,0,0,0,60.2,47.1,7.49,7.49,0,0,0,58.06,50a9.38,9.38,0,0,0-.67,5.59,9.8,9.8,0,0,0,3.27,5.07,1.9,1.9,0,0,0,1.29.23c1.27-.1,2.52-.35,3.79-.43S68.28,60.4,69.54,60.44Zm6.55,17.41c1.13-.9,1.27-1.26.6-2.51A9.33,9.33,0,0,0,75.88,74a13.31,13.31,0,0,0-4.5-3.87,9.48,9.48,0,0,0-8.08-.76,15.76,15.76,0,0,0-4.08,2.35A11.94,11.94,0,0,0,56,75.47a1.39,1.39,0,0,0,.51,2.13,43.68,43.68,0,0,1,3.72,2.71c2.26,2,4.41,4.12,6.7,6.27A6.44,6.44,0,0,0,67.6,86c1.4-1.51,2.71-3.1,4.18-4.53S74.62,79,76.09,77.85Zm8.11-4c-.12-1.45-.12-2.86-.35-4.22a47.06,47.06,0,0,0-1.23-5.25c-.35-1.16-1.12-1.44-2.28-1a4.29,4.29,0,0,0-1.27.85,5.75,5.75,0,0,0-1.77,4.9c.21,2.51.41,5,2.9,6.5a2.94,2.94,0,0,0,2.92.34C84.06,75.58,84.07,74.67,84.2,73.88Zm8.58,41.66a114.58,114.58,0,0,0,5.37,10.75,65.62,65.62,0,0,1-62.31-1.14c1.29-2.11,2.58-4.23,3.85-6.35a46.1,46.1,0,0,0,4.76-9.72c1-3.27,2.1-6.55,2.87-9.89a19.77,19.77,0,0,0,.23-8.25A10.38,10.38,0,0,0,46,87a10.56,10.56,0,0,1-2.23-5.82A22.8,22.8,0,0,1,44.38,77a55.82,55.82,0,0,0,1.3-8.42,36.76,36.76,0,0,1,.56-4.16A22.7,22.7,0,0,1,47,60.78a10.06,10.06,0,0,1,4.62-5.43,7,7,0,0,1,.85-.33,12.59,12.59,0,0,1,1.75-5.79,4.08,4.08,0,0,0,.6-1.71,74.55,74.55,0,0,1,2-13.6,65.35,65.35,0,0,1,2.72-8.44,11.37,11.37,0,0,1,1.3-2.24c1.79-2.44,3.58-4.89,5.46-7.25a8,8,0,0,1,2.26-1.77c.91-.54,1.41-.17,1.71.82.54,1.82,1.18,3.61,1.78,5.4a1.44,1.44,0,0,0,.18.29c2-.78,3.92-1.59,5.9-2.32a23.18,23.18,0,0,1,7.11-1.56,1.65,1.65,0,0,1,1.8,2.27c-.47,1.84-.93,3.68-1.49,5.48-1.48,4.77-2.12,9.71-3,14.6-.1.55-.19,1.1-.26,1.52a21.72,21.72,0,0,1,3.3-.41c1.66,0,2.15.6,2,2A12.78,12.78,0,0,1,87,45.27c-.88,2.53-1.84,5-2.81,7.51a29.7,29.7,0,0,1-1.28,2.74.77.77,0,0,0,.07,1c1.48,1.68,2,3.8,2.59,5.86A27.3,27.3,0,0,1,86.12,66c.19,1.38.37,2.76.56,4.14a3,3,0,0,1,0,.6,19.79,19.79,0,0,0,1,6.91A21.11,21.11,0,0,1,88.33,81a10.39,10.39,0,0,1-1.57,6,29.76,29.76,0,0,0-1.37,2.7,9.84,9.84,0,0,0-.5,6.11,48.91,48.91,0,0,0,1.63,6.3c1.22,3,2.8,5.93,4.2,8.9C91.43,112.48,92.11,114,92.78,115.54Z"/><path class="cls-2" d="M84.2,73.88c-.13.79-.14,1.7-1.08,2.13a2.94,2.94,0,0,1-2.92-.34c-2.49-1.53-2.69-4-2.9-6.5a5.75,5.75,0,0,1,1.77-4.9,4.29,4.29,0,0,1,1.27-.85c1.16-.45,1.93-.17,2.28,1a47.06,47.06,0,0,1,1.23,5.25C84.08,71,84.08,72.43,84.2,73.88Z"/><path class="cls-2" d="M76.69,75.34c.67,1.25.53,1.61-.6,2.51-1.47,1.16-3,2.32-4.31,3.62S69,84.49,67.6,86a6.44,6.44,0,0,1-.69.58c-2.29-2.15-4.44-4.27-6.7-6.27a43.68,43.68,0,0,0-3.72-2.71A1.39,1.39,0,0,1,56,75.47a11.94,11.94,0,0,1,3.24-3.73,15.76,15.76,0,0,1,4.08-2.35,9.48,9.48,0,0,1,8.08.76A13.31,13.31,0,0,1,75.88,74,9.33,9.33,0,0,1,76.69,75.34Z"/><path class="cls-2" d="M75.67,86.68a27.44,27.44,0,0,1,6,9.43,41.64,41.64,0,0,1,2,7.8,14.41,14.41,0,0,1-.93,7.58,16,16,0,0,1-2.53,4.71,8.11,8.11,0,0,1-6.06,3.11,4.3,4.3,0,0,1-3-1.47,9,9,0,0,1-3.14-7.2c0-.7,0-1.39,0-2.09.31-3.21.47-6.42.7-9.63a27.32,27.32,0,0,1,2.18-8.56c.65-1.56,1.27-3.26,2.76-4.32a1.37,1.37,0,0,1,1-.06A3,3,0,0,1,75.67,86.68Z"/><path class="cls-2" d="M68.75,98.92c-.23,3.21-.39,6.42-.7,9.63l-.19,0C68.16,105.33,68.52,102.13,68.75,98.92Z"/><path class="cls-2" d="M82.87,44.73a2.23,2.23,0,0,1,0,.82c-.42.94-.91,1.85-1.36,2.77Q79.33,52.67,77.15,57c-.45.91-1,1.79-1.42,2.71-.61,1.19-.6,1.16-1.92,1s-2.84-.24-4.27-.3c-1.26,0-2.54-.07-3.8,0s-2.52.33-3.79.43a1.9,1.9,0,0,1-1.29-.23,9.8,9.8,0,0,1-3.27-5.07A9.38,9.38,0,0,1,58.06,50,7.49,7.49,0,0,1,60.2,47.1a78.52,78.52,0,0,1,2.23-12.19,42.08,42.08,0,0,1,4.28-10,1.93,1.93,0,0,1,.53-.6c.31-.2.56-.19.65.29a11.28,11.28,0,0,0,2.13,5A35.87,35.87,0,0,1,80.88,24.3a86,86,0,0,0-4,23.06c.9-.51,1.63-1,2.38-1.34.91-.45,1.83-.88,2.77-1.27A2.29,2.29,0,0,1,82.87,44.73Z"/><path class="cls-2" d="M65.61,108.6c-.11,1.88,0,3.76-.68,5.57a9.29,9.29,0,0,1-3.85,4.64,3.61,3.61,0,0,1-2.62.4c-3.9-.69-5.86-3.43-7.28-6.76a16.34,16.34,0,0,1-1.36-8.31,31,31,0,0,1,1.39-5.91,28.49,28.49,0,0,1,4.2-8.68c.26-.33.6-.61.9-.92.72-.8,1.4-1.63,2.15-2.39s1-.57,1.67,0a11.67,11.67,0,0,1,2.68,4.63,31,31,0,0,1,1.48,4.71,56.75,56.75,0,0,1,.87,6.24C65.38,104.1,65.46,106.35,65.61,108.6Z"/><path class="cls-2" d="M52.16,63.71a4.7,4.7,0,0,1,2.31,4.2,6.29,6.29,0,0,0,.17,1.19c-.15,1.83-.23,3.57-1.25,5a4.59,4.59,0,0,1-3.13,2.14,2,2,0,0,1-2.48-2.12,27.53,27.53,0,0,1,1.46-9.56C49.78,63.13,50.88,62.84,52.16,63.71Z"/><path class="cls-2" d="M10.45,99.36c.18.34.37.68.56,1C10.82,100,10.63,99.7,10.45,99.36Z"/><path class="cls-2" d="M9.74,98c.2.41.42.82.64,1.22C10.16,98.83,10,98.42,9.74,98Z"/><path class="cls-2" d="M9,96.53c.2.43.42.86.64,1.29C9.42,97.39,9.21,97,9,96.53Z"/><path class="cls-2" d="M8.35,95.15c.18.41.37.82.57,1.22C8.72,96,8.54,95.56,8.35,95.15Z"/><path class="cls-2" d="M6.59,90.9c.15.4.3.79.46,1.19C6.89,91.69,6.74,91.3,6.59,90.9Z"/><path class="cls-2" d="M5,86.09q.18.68.39,1.32Q5.2,86.77,5,86.09Z"/><path class="cls-2" d="M4.18,82.85c.11.49.23,1,.36,1.48C4.41,83.84,4.29,83.34,4.18,82.85Z"/><path class="cls-2" d="M3.83,81.26c.11.54.23,1.06.35,1.59C4.06,82.32,3.94,81.8,3.83,81.26Z"/><path class="cls-2" d="M3.54,79.72c.09.52.19,1,.29,1.54C3.73,80.75,3.63,80.24,3.54,79.72Z"/><path class="cls-2" d="M3.28,78.18c.07.48.15,1,.24,1.43C3.43,79.14,3.35,78.66,3.28,78.18Z"/><path class="cls-2" d="M3,76.4q.08.66.18,1.32Q3.11,77.06,3,76.4Z"/><path class="cls-2" d="M2.87,75c0,.47.1.93.16,1.4C3,75.94,2.91,75.47,2.87,75Z"/><path class="cls-2" d="M2.7,73.17c0,.4.06.8.1,1.2C2.76,74,2.73,73.58,2.7,73.17Z"/><path class="cls-2" d="M2.59,71.47c0,.53.06,1.06.1,1.58C2.65,72.53,2.61,72,2.59,71.47Z"/><path class="cls-2" d="M2.53,70q0,.69.06,1.38Q2.55,70.73,2.53,70Z"/><path class="cls-4" d="M2.51,69.22c0-.39,0-.78,0-1.17a65.55,65.55,0,0,1,131.1,0c0,.41,0,.82,0,1.23s0,.64,0,1,0,.79,0,1.18-.06,1-.1,1.56-.07.85-.11,1.26,0,.51-.07.76a.28.28,0,0,1,0,.09c0,.44-.1.88-.16,1.31s-.11.85-.17,1.27c0,.24-.07.49-.11.73-.14.88-.29,1.74-.47,2.6,0,.21-.08.42-.13.63-.09.46-.2.93-.3,1.38s-.23.95-.35,1.42-.28,1-.43,1.57-.29,1-.46,1.54-.32,1-.49,1.53-.25.72-.38,1.07-.21.6-.32.88-.24.64-.36,1c-.24.61-.48,1.21-.74,1.8-.17.41-.34.8-.53,1.21s-.47,1-.72,1.54-.4.83-.61,1.24l-.07.13c-.22.45-.46.89-.7,1.33a1.09,1.09,0,0,1-.08.15q-.27.51-.57,1c-.25.45-.51.9-.78,1.33s-.35.58-.53.87-.38.62-.59.93c-.39.62-.81,1.24-1.23,1.84s-.85,1.2-1.29,1.79c-.21.3-.43.59-.66.88s-.43.55-.64.82l-.15.19c-.42.53-.86,1-1.3,1.56-.21.26-.43.51-.64.75a3,3,0,0,1-.24.26c-.18.22-.37.43-.57.64l-.76.81c-.17.19-.34.37-.53.56-.58.61-1.18,1.2-1.79,1.78-.26.26-.54.52-.81.76s-.54.5-.81.74c-.55.5-1.1,1-1.67,1.44-.22.2-.45.39-.68.57l-.41.33c-.2.17-.41.33-.62.49l-.88.67c-.21.18-.44.34-.66.5s-.32.24-.48.34-.42.32-.64.46c-.6.43-1.21.85-1.83,1.24-.31.21-.61.41-.93.6-.62.4-1.25.78-1.89,1.15l-.86.5c-.68.38-1.37.75-2.06,1.1a65.62,65.62,0,0,1-62.31-1.14.05.05,0,0,1-.05,0c-.3-.16-.59-.33-.88-.5s-.61-.36-.92-.55l-.9-.56-.9-.58-.89-.59-.88-.61q-.44-.3-.87-.63c-.86-.61-1.71-1.27-2.54-1.94s-1.64-1.34-2.44-2.06c-.52-.46-1.05-.94-1.56-1.43l-.77-.74-.76-.75c-.48-.49-1-1-1.43-1.49L20,112.6c-.48-.51-.94-1-1.39-1.54l-.69-.81c-.23-.27-.46-.54-.68-.82-.45-.55-.89-1.11-1.31-1.67-.22-.28-.42-.55-.62-.82-.44-.58-.86-1.17-1.26-1.78-.21-.29-.41-.58-.6-.88-.35-.51-.68-1-1-1.55-.08-.12-.16-.24-.23-.37s-.29-.47-.43-.71c-.26-.41-.51-.84-.75-1.28s-.38-.67-.56-1a.54.54,0,0,1-.07-.13c-.22-.4-.44-.81-.64-1.22a1.74,1.74,0,0,1-.1-.19C9.42,97.39,9.2,97,9,96.53c0,0-.05-.1-.08-.16-.2-.4-.39-.81-.57-1.22-.46-1-.9-2-1.3-3.06-.16-.4-.31-.79-.46-1.19-.43-1.14-.82-2.3-1.18-3.49Q5.2,86.77,5,86.09c-.17-.58-.33-1.17-.48-1.76s-.25-1-.36-1.48-.24-1-.35-1.59-.2-1-.29-1.54a.36.36,0,0,1,0-.11c-.09-.47-.17-1-.24-1.43,0-.15,0-.3-.07-.46q-.1-.66-.18-1.32c-.06-.47-.12-.93-.16-1.4,0-.2-.05-.42-.07-.63,0-.4-.07-.8-.1-1.2a.49.49,0,0,1,0-.12c0-.52-.08-1-.1-1.58v0q0-.69-.06-1.38C2.52,69.77,2.51,69.49,2.51,69.22Z"/></g></g></svg>