<svg xmlns="http://www.w3.org/2000/svg" viewBox="0 0 534.56 128.93"><defs><style>.cls-1{isolation:isolate;font-size:100px;font-family:Sen-Bold, Sen;font-weight:700;}.cls-2{fill:#161a22;}.cls-3{fill:#fe3132;}.cls-4{fill:#292e3b;}</style></defs><g id="Layer_2" data-name="Layer 2"><g id="Layer_1-2" data-name="Layer 1"><text class="cls-1" transform="translate(149.8 100.07)">RTBYTE</text><path class="cls-2" d="M27.23,55.78c.13-.14,0-.26,0-.38-.26-1.36-.48-2.72-.62-4.1a29.51,29.51,0,0,1,.45-9.74,17.31,17.31,0,0,1,1.8-4.77,12.73,12.73,0,0,1,4.43-4.73,13.09,13.09,0,0,1,5.27-1.88,21,21,0,0,1,8,.59,32.66,32.66,0,0,1,6.18,2.32l.58.26c.15-.18,0-.26-.07-.35-.68-1-1.41-1.86-2-2.84a26.76,26.76,0,0,1-3.93-9.11,19.69,19.69,0,0,1-.45-5.93,14.87,14.87,0,0,1,4.4-9.77,15.7,15.7,0,0,1,7.06-3.93A22,22,0,0,1,65.74.81,30.19,30.19,0,0,1,77.37,4.38c.77.4,1.51.85,2.25,1.29a6.28,6.28,0,0,0,1.1.55,60.62,60.62,0,0,1,19.46,12,64.59,64.59,0,0,1,19.31,32.53,61.07,61.07,0,0,1,1.52,9c.15,1.59.23,3.18.27,4.78a62.22,62.22,0,0,1-.19,6.55,61.05,61.05,0,0,1-5.57,21,59,59,0,0,1-26.3,27.53,58.27,58.27,0,0,1-28.12,6.55,59.53,59.53,0,0,1-24.74-5.8A63.25,63.25,0,0,1,7.61,93.23,5.64,5.64,0,0,1,7,91.82a1.14,1.14,0,0,0-.23-.38A33.62,33.62,0,0,1,.9,78.05,40,40,0,0,1,0,71.24a35.5,35.5,0,0,1,1.22-11,24.7,24.7,0,0,1,2.46-5.91,16.74,16.74,0,0,1,3.37-4.17,11.21,11.21,0,0,1,5.17-2.7,10.4,10.4,0,0,1,5.74.41A15.15,15.15,0,0,1,23.19,51a23.69,23.69,0,0,1,3.64,4.29A1.46,1.46,0,0,0,27.23,55.78Z"/><path class="cls-3" d="M62.59,114.88a30.88,30.88,0,0,1-11.4-2.14,26,26,0,0,1-15-15.42,29.93,29.93,0,0,1-1.72-7.1,34.59,34.59,0,0,1-.19-6.67A42,42,0,0,1,36.39,72.9,50.63,50.63,0,0,1,46,56,51.74,51.74,0,0,1,63,42.71a43.32,43.32,0,0,1,10.41-3.52,36.23,36.23,0,0,1,9-.68,29.28,29.28,0,0,1,12.41,3.35,25.84,25.84,0,0,1,11.71,12.82A30.33,30.33,0,0,1,108.81,63a35.94,35.94,0,0,1,.19,6.8,41.73,41.73,0,0,1-2.23,10.94,50.79,50.79,0,0,1-9,16,52.13,52.13,0,0,1-15.78,13A43.89,43.89,0,0,1,70.31,114a37.18,37.18,0,0,1-5.45.74Z"/><path class="cls-4" d="M20.61,52.68A8.18,8.18,0,0,1,21,49.82,4.66,4.66,0,0,1,22.17,48a2.87,2.87,0,0,1,2.8-.82,5,5,0,0,1,1.69.77A8,8,0,0,1,28,49.17,11.14,11.14,0,0,1,30,52.45a12.2,12.2,0,0,1,.79,5.21A7.85,7.85,0,0,1,30.24,60a4.49,4.49,0,0,1-.8,1.33,3.07,3.07,0,0,1-3.4,1,5,5,0,0,1-1.74-1,9,9,0,0,1-1.87-2.21A12.32,12.32,0,0,1,20.61,52.68Z"/><path class="cls-4" d="M62.61,25A8.51,8.51,0,0,1,56,21.78a4.46,4.46,0,0,1-1-2,3,3,0,0,1,1.76-3.57A4.64,4.64,0,0,1,59,15.87a9,9,0,0,1,5.12,1.76,7.3,7.3,0,0,1,1.74,1.81,4.42,4.42,0,0,1,.75,1.85,2.85,2.85,0,0,1-1.26,3A4.39,4.39,0,0,1,63.2,25,5.76,5.76,0,0,1,62.61,25Z"/><path class="cls-4" d="M8.76,49.49a12.28,12.28,0,0,1,.72-4.07,4.64,4.64,0,0,1,1.09-1.82,4,4,0,0,1,.43-.39,1.52,1.52,0,0,1,2,0,3.38,3.38,0,0,1,.9,1.18A7.88,7.88,0,0,1,14.63,47a12.47,12.47,0,0,1-.35,5.33,7.27,7.27,0,0,1-.8,1.83,3.71,3.71,0,0,1-.85,1A1.59,1.59,0,0,1,10.49,55a3.66,3.66,0,0,1-.87-1.2A7.64,7.64,0,0,1,9,51.51C8.87,50.87,8.83,50.18,8.76,49.49Z"/><path class="cls-4" d="M42.47,28.8a5.07,5.07,0,0,1-1.77-.35,7.68,7.68,0,0,1-3.74-3,4.69,4.69,0,0,1-.8-2.16,2.53,2.53,0,0,1,2.09-2.88,4.78,4.78,0,0,1,2.43.19,7.46,7.46,0,0,1,4,3,5,5,0,0,1,.8,2,2.57,2.57,0,0,1-2,3,2.47,2.47,0,0,1-.38.05Z"/><path class="cls-4" d="M46.7,43.08a9.89,9.89,0,0,1-1.11-.2,6.78,6.78,0,0,1-4-2.91A3.76,3.76,0,0,1,41,38.22a2.08,2.08,0,0,1,1.62-2.33A4.35,4.35,0,0,1,45,36a7,7,0,0,1,3.49,2.37,4.49,4.49,0,0,1,.93,2A2.2,2.2,0,0,1,47.73,43l-.15,0C47.32,43.05,47,43.05,46.7,43.08Z"/><path class="cls-4" d="M22.73,35.4a2.64,2.64,0,0,1-.23,1.14,1.34,1.34,0,0,1-1.47.81,2.68,2.68,0,0,1-.79-.24,3.67,3.67,0,0,1-.8-.55,5.47,5.47,0,0,1-1.79-4,2.79,2.79,0,0,1,.11-.76,1.46,1.46,0,0,1,1.76-1.08l.24.08a2.17,2.17,0,0,1,.63.31A5.65,5.65,0,0,1,22.73,35.4Z"/><path class="cls-4" d="M15.74,65.4a5.65,5.65,0,0,1-.3,2,4.07,4.07,0,0,1-.5,1,1.08,1.08,0,0,1-1.46.39,1,1,0,0,1-.39-.39,3.46,3.46,0,0,1-.52-.89A6.16,6.16,0,0,1,12.13,65a5.93,5.93,0,0,1,.35-2,2.62,2.62,0,0,1,.63-1,1,1,0,0,1,1.4-.2,1.26,1.26,0,0,1,.2.2,2.76,2.76,0,0,1,.58.92A6.2,6.2,0,0,1,15.74,65.4Z"/><path class="cls-4" d="M56.27,12.86a3.25,3.25,0,0,1-1.91-.62,2.21,2.21,0,0,1-.79-1,1.43,1.43,0,0,1,.62-1.8A3.15,3.15,0,0,1,55,9.1,3.05,3.05,0,0,1,58,10.23a1.54,1.54,0,0,1-.76,2.47,2.18,2.18,0,0,1-.44.11Z"/><path class="cls-4" d="M40.7,15.56c0-.83.37-1.25,1-1.32h.45a3.08,3.08,0,0,1,2.38,2.14,1.14,1.14,0,0,1-.68,1.45,1.09,1.09,0,0,1-.44.06,2.35,2.35,0,0,1-.83-.12,3,3,0,0,1-1.73-1.56A4.88,4.88,0,0,1,40.7,15.56Z"/><path class="cls-4" d="M2.73,86l.23.2c.32.41.64.82.94,1.24a11.83,11.83,0,0,0,2.72,2.84,7.51,7.51,0,0,0,1.82,1A6,6,0,0,0,13,91.2a10.57,10.57,0,0,0,3.84-2.91,20.52,20.52,0,0,0,2.45-3.73,36.54,36.54,0,0,0,1.91-4.4,44.73,44.73,0,0,0,2-7.64c.11-.6.21-1.19.32-1.78a2.75,2.75,0,0,1,.11-.41c.09.25.15.4.2.56a41.24,41.24,0,0,0,2.68,7A51.87,51.87,0,0,0,30,84a45.71,45.71,0,0,0,4.84,6,34.52,34.52,0,0,0,3.69,3.36,31.13,31.13,0,0,0,4.57,3.06,29.17,29.17,0,0,0,3,1.39,22.11,22.11,0,0,0,5.31,1.39,15.7,15.7,0,0,0,10.84-2.39,16.46,16.46,0,0,0,4-3.81,22,22,0,0,0,3.6-7.34A29.53,29.53,0,0,0,71,79.48a40.42,40.42,0,0,0,0-4.67A45.43,45.43,0,0,0,68.62,62.7c-.44-1.29-1-2.55-1.44-3.82-.06-.18-.13-.36-.21-.59a.64.64,0,0,1,.43.18,23.89,23.89,0,0,0,2.87,1.75,18,18,0,0,0,6.65,2,11.22,11.22,0,0,0,10.57-4.8A17.07,17.07,0,0,0,90.09,52a27.36,27.36,0,0,0,1-5.16c.12-1.33.21-2.66.22-4,0-1-.07-1.9-.15-2.85a53.13,53.13,0,0,0-1.75-9.35,60.6,60.6,0,0,0-3.87-10.08,55.42,55.42,0,0,0-5.6-9.25,44,44,0,0,0-6.72-7.19A28.81,28.81,0,0,0,67.48.27c-.09-.05-.17-.11-.26-.15s.15-.12.22-.12c1.68.1,3.36.23,5,.48,1.33.19,2.66.33,4,.65,1,.23,2,.39,2.92.62s1.79.46,2.68.71,1.7.5,2.54.79,1.9.7,2.85,1c1.52.56,3,1.23,4.46,1.91.76.36,1.5.76,2.25,1.15s1.52.82,2.27,1.25,1.19.7,1.77,1.07,1.43.89,2.13,1.37c1.24.85,2.48,1.72,3.65,2.68s2.1,1.73,3.13,2.61A46,46,0,0,1,110.9,20c.86.94,1.71,1.88,2.55,2.84a45.49,45.49,0,0,1,2.92,3.72c.71,1,1.43,2,2.09,3q1.44,2.22,2.66,4.58c.39.77.82,1.53,1.19,2.31s.82,1.81,1.2,2.72.74,1.75,1.08,2.64a35.37,35.37,0,0,1,1.33,4c.31,1.1.63,2.2.92,3.3.18.67.32,1.35.45,2,.4,2,.74,4,1,6.14a63.76,63.76,0,0,1,.36,9.77,65.8,65.8,0,0,1-.68,7c-.26,1.86-.65,3.7-1.07,5.53-.33,1.4-.76,2.78-1.17,4.17-.52,1.74-1.16,3.44-1.83,5.12-.32.8-.69,1.59-1,2.37s-.75,1.6-1.15,2.39-.88,1.68-1.34,2.52c-.86,1.55-1.79,3-2.79,4.52-.84,1.25-1.75,2.46-2.68,3.65-1.14,1.44-2.34,2.83-3.58,4.17a50.1,50.1,0,0,1-3.6,3.54c-1.06,1-2.13,1.89-3.24,2.78s-2.39,1.85-3.64,2.7c-1,.72-2.11,1.42-3.2,2.08s-2.11,1.26-3.21,1.81c-.78.39-1.53.81-2.31,1.19s-1.6.75-2.41,1.1c-1.18.48-2.36,1-3.56,1.4-1.55.58-3.14,1.09-4.74,1.52s-3.35.83-5,1.17c-1.87.37-3.75.62-5.64.84a62.47,62.47,0,0,1-8.09.32,64.28,64.28,0,0,1-8.32-.73c-1.61-.23-3.2-.55-4.77-.92-2-.45-3.9-.93-5.81-1.57-1-.33-2-.7-3-1.09-1.44-.57-2.88-1.16-4.3-1.78-.83-.37-1.64-.78-2.44-1.2l-2.17-1.16c-.55-.31-1.09-.62-1.62-.94-.78-.47-1.55-.94-2.31-1.44s-1.57-1-2.35-1.61-1.59-1-2.31-1.47-1.43-1.12-2.12-1.7c-1-.86-2-1.76-3-2.69-1.12-1.1-2.26-2.19-3.27-3.4-.18-.22-.4-.4-.58-.61-.47-.54-.93-1.08-1.39-1.63-.31-.38-.61-.79-.93-1.16a29.42,29.42,0,0,1-2.1-2.88c-.16-.23-.35-.44-.5-.67-.52-.8-1-1.61-1.52-2.41-.31-.49-.65-1-.94-1.47-.44-.77-.85-1.56-1.26-2.34a31.67,31.67,0,0,1-1.57-3.2c-.24-.57-.49-1.15-.72-1.73a13.79,13.79,0,0,1-.7-2.76C2.73,86.2,2.73,86.1,2.73,86Z"/></g></g></svg>