<svg xmlns="http://www.w3.org/2000/svg" viewBox="0 0 220.72 220.72"><defs><style>.cls-1{fill:#fff;}.cls-2{fill:#ab0000;}.cls-3{fill:#ac0101;}.cls-4{fill:none;stroke:#fff;stroke-width:10px;}</style></defs><g id="Layer_2" data-name="Layer 2"><g id="Layer_1-2" data-name="Layer 1"><path class="cls-1" d="M83.25,181.72c2.28,5.36,5.43,9.76,11.7,10.86a5.74,5.74,0,0,0,4.21-.64,15.05,15.05,0,0,0,6.2-7.46c1.11-2.9.91-5.92,1.07-8.94-.23-3.62-.36-7.25-.71-10.85a94,94,0,0,0-1.4-10,48.52,48.52,0,0,0-2.39-7.57c-1-2.69-2.1-5.39-4.3-7.43-1.06-1-1.64-1.08-2.68-.05-1.21,1.21-2.31,2.55-3.47,3.83-.46.51-1,.94-1.44,1.49-3.22,4.17-5.13,9-6.75,14a49.46,49.46,0,0,0-2.23,9.48A26.13,26.13,0,0,0,83.25,181.72Zm-5.48-61.6c0,2.43,1.56,3.67,4,3.4a7.31,7.31,0,0,0,5-3.44c1.64-2.29,1.76-5.1,2-8a10,10,0,0,1-.26-1.92,7.57,7.57,0,0,0-3.72-6.75c-2.06-1.4-3.83-.94-4.7,1.37C78.26,109.7,77.86,114.91,77.77,120.12Zm62.53-6.38a5.11,5.11,0,0,1,.06,1,31.94,31.94,0,0,0,1.51,11.11,32.33,32.33,0,0,1,1.1,5.33c.36,3.49-.95,6.61-2.54,9.62-.75,1.44-1.59,2.84-2.19,4.34a15.74,15.74,0,0,0-.8,9.82c.83,3.38,1.32,6.91,2.61,10.12,1.95,4.89,4.49,9.54,6.74,14.31,1.15,2.43,2.24,4.89,3.32,7.35A186.75,186.75,0,0,0,158.74,204a105.4,105.4,0,0,1-108.86-7.34q4.21,3,8.72,5.5,3.1-5.08,6.19-10.2c3-5,5.88-10.06,7.65-15.63,1.67-5.25,3.37-10.52,4.6-15.89a31.73,31.73,0,0,0,.37-13.27,16.59,16.59,0,0,0-2.55-6.29c-1.89-2.78-3.59-5.86-3.59-9.36a35.57,35.57,0,0,1,1.06-6.81,90.68,90.68,0,0,0,2.08-13.52,54.45,54.45,0,0,1,.91-6.7,33,33,0,0,1,1.23-5.78A16.16,16.16,0,0,1,84,89.94a10.35,10.35,0,0,1,1.35-.52,20.39,20.39,0,0,1,2.83-9.31,6.37,6.37,0,0,0,1-2.75c.58-7.36,1.31-14.68,3.26-21.86a105.11,105.11,0,0,1,4.36-13.57,18,18,0,0,1,2.1-3.6c2.87-3.92,5.74-7.85,8.77-11.65a13,13,0,0,1,3.62-2.85c1.47-.86,2.27-.27,2.75,1.33.87,2.91,1.9,5.78,2.87,8.67a2.74,2.74,0,0,0,.29.47c3.17-1.25,6.3-2.56,9.47-3.73a37.83,37.83,0,0,1,11.45-2.51c2.28-.1,3.44,1.42,2.88,3.66-.74,3-1.48,5.9-2.39,8.8-2.39,7.67-3.4,15.61-4.86,23.47-.16.88-.3,1.77-.42,2.43a36.7,36.7,0,0,1,5.3-.65c2.68,0,3.47,1,3.22,3.24a21.67,21.67,0,0,1-1,4.74c-1.41,4.06-3,8.07-4.52,12.07a47.48,47.48,0,0,1-2.05,4.4,1.22,1.22,0,0,0,.11,1.59c2.37,2.7,3.22,6.1,4.15,9.41a43.82,43.82,0,0,1,.89,5.86Q139.87,110.41,140.3,113.74Zm-15.06-1.58c.32,4,.66,8,4.64,10.44a4.68,4.68,0,0,0,4.7.54c1.51-.68,1.53-2.16,1.73-3.42-.18-2.33-.18-4.59-.56-6.78a73.64,73.64,0,0,0-2-8.43c-.56-1.87-1.8-2.32-3.66-1.59a6.49,6.49,0,0,0-2.05,1.36A9.23,9.23,0,0,0,125.24,112.16Zm-1.95,14c1.81-1.44,2-2,1-4A16.94,16.94,0,0,0,123,120a21.39,21.39,0,0,0-7.23-6.21c-4.15-2.22-8.45-2.9-13-1.23a25.58,25.58,0,0,0-6.55,3.78,19.2,19.2,0,0,0-5.21,6c-.84,1.5-.58,2.42.83,3.43a73.28,73.28,0,0,1,6,4.35c3.64,3.22,7.11,6.63,10.77,10.08a9.49,9.49,0,0,0,1.13-.94c2.23-2.43,4.34-5,6.71-7.27A87.79,87.79,0,0,1,123.29,126.11Zm-7.88,64.28c1.36,1.22,2.87,2.44,4.77,2.35a13,13,0,0,0,9.74-5,25.54,25.54,0,0,0,4.06-7.57A23.28,23.28,0,0,0,135.49,168a67.32,67.32,0,0,0-3.28-12.54,44.1,44.1,0,0,0-9.6-15.15,4.32,4.32,0,0,0-1.52-1.12,2.11,2.11,0,0,0-1.66.1c-2.4,1.69-3.4,4.43-4.43,6.93A43.66,43.66,0,0,0,111.48,160c-.35,5.15-.94,10.29-1.42,15.44l.3,0c0,1.12,0,2.24,0,3.36A14.6,14.6,0,0,0,115.41,190.39ZM113.53,48.57a18.07,18.07,0,0,1-3.43-8c-.14-.78-.55-.79-1-.46a3,3,0,0,0-.84,1,66,66,0,0,0-6.88,16,126.13,126.13,0,0,0-3.59,19.6,12,12,0,0,0-3.45,4.64,15.14,15.14,0,0,0-1.08,9,15.93,15.93,0,0,0,5.27,8.16,3.05,3.05,0,0,0,2.07.37c2-.17,4-.57,6.09-.7s4.08-.09,6.11,0c2.29.09,4.58.26,6.87.48,2.12.21,2.1.25,3.07-1.67.75-1.46,1.56-2.88,2.3-4.35q3.5-7,7-13.94c.74-1.48,1.51-2.94,2.19-4.45a3.68,3.68,0,0,0,0-1.33,3.79,3.79,0,0,0-1.31,0c-.76.32-1.5.64-2.25,1s-1.48.69-2.21,1.06c-1.22.61-2.38,1.32-3.84,2.15.65-12.73,2.44-25,6.42-37.06C124.51,41.72,118.93,45,113.53,48.57Z"/><path class="cls-2" d="M215.42,118.28c.07-.83.12-1.66.16-2.5C215.54,116.62,215.49,117.45,215.42,118.28Z"/><path class="cls-2" d="M214.87,123.78c.09-.7.17-1.4.25-2.11C215.05,122.37,215,123.08,214.87,123.78Z"/><path class="cls-2" d="M214.59,125.82c.1-.68.2-1.36.28-2C214.79,124.46,214.69,125.14,214.59,125.82Z"/><path class="cls-2" d="M212.4,136.69c.2-.76.38-1.52.56-2.28C212.78,135.18,212.6,135.93,212.4,136.69Z"/><path class="cls-2" d="M211.72,139.2c.24-.83.47-1.67.68-2.51C212.19,137.53,212,138.37,211.72,139.2Z"/><path class="cls-2" d="M211,141.69c.26-.83.51-1.66.74-2.49C211.49,140,211.24,140.86,211,141.69Z"/><path class="cls-2" d="M210.18,144.15c.28-.82.55-1.64.8-2.46C210.73,142.51,210.46,143.34,210.18,144.15Z"/><path class="cls-2" d="M209.58,145.87c.21-.57.41-1.14.6-1.72C210,144.73,209.79,145.3,209.58,145.87Z"/><path class="cls-2" d="M208.48,148.81c.2-.51.4-1,.58-1.53C208.88,147.79,208.68,148.3,208.48,148.81Z"/><path class="cls-2" d="M206.44,153.64c.3-.65.58-1.29.86-1.94C207,152.35,206.74,153,206.44,153.64Z"/><path class="cls-2" d="M204.3,158.11c.34-.66.67-1.32,1-2C205,156.78,204.64,157.45,204.3,158.11Z"/><path class="cls-2" d="M203.07,160.46c.38-.71.76-1.42,1.12-2.14C203.82,159,203.45,159.75,203.07,160.46Z"/><path class="cls-2" d="M202,162.33c.32-.54.62-1.09.92-1.64C202.64,161.24,202.33,161.79,202,162.33Z"/><path class="cls-2" d="M110.36,5A105.36,105.36,0,0,1,215.72,110.36c0,.66,0,1.32,0,2,0,.51,0,1,0,1.54s0,1.27-.08,1.9c0,.84-.09,1.67-.16,2.5,0,.68-.1,1.35-.17,2,0,.4-.07.81-.12,1.21a.76.76,0,0,1,0,.15c-.08.71-.16,1.41-.25,2.11s-.18,1.36-.28,2q-.08.59-.18,1.17c-.22,1.41-.47,2.8-.75,4.18-.06.34-.13.68-.21,1-.15.75-.32,1.49-.49,2.23s-.36,1.52-.56,2.28-.44,1.68-.68,2.51-.48,1.66-.74,2.49-.52,1.64-.8,2.46c-.19.58-.39,1.15-.6,1.72s-.34.95-.52,1.41-.38,1-.58,1.53c-.38,1-.77,1.93-1.18,2.89-.28.65-.56,1.29-.86,1.94-.37.83-.75,1.65-1.15,2.47s-.65,1.34-1,2a2.12,2.12,0,0,1-.11.21c-.36.72-.74,1.43-1.12,2.14l-.13.23c-.3.55-.6,1.1-.92,1.64-.4.72-.82,1.44-1.25,2.15-.28.47-.56.93-.85,1.39s-.63,1-.95,1.5c-.64,1-1.3,2-2,3s-1.36,1.93-2.07,2.88l-1.07,1.41-1,1.32a3.15,3.15,0,0,1-.24.3c-.68.85-1.37,1.68-2.08,2.51l-1,1.2-.37.42-.93,1c-.39.44-.8.87-1.21,1.3l-.86.9c-.93,1-1.9,1.93-2.88,2.87l-1.29,1.21-1.31,1.19c-.88.79-1.77,1.56-2.68,2.32-.36.31-.73.61-1.1.91l-.66.53-1,.79q-.69.56-1.41,1.08l-1.07.8c-.25.19-.51.38-.76.55l-1,.74c-1,.68-1.94,1.34-2.93,2l-1.5,1c-1,.64-2,1.25-3,1.85l-1.39.8c-1.09.62-2.19,1.21-3.3,1.78a186.75,186.75,0,0,1-8.63-17.28c-1.08-2.46-2.17-4.92-3.32-7.35-2.25-4.77-4.79-9.42-6.74-14.31-1.29-3.21-1.78-6.74-2.61-10.12a15.74,15.74,0,0,1,.8-9.82c.6-1.5,1.44-2.9,2.19-4.34,1.59-3,2.9-6.13,2.54-9.62a32.33,32.33,0,0,0-1.1-5.33,31.94,31.94,0,0,1-1.51-11.11,5.11,5.11,0,0,0-.06-1q-.44-3.33-.9-6.66a43.82,43.82,0,0,0-.89-5.86c-.93-3.31-1.78-6.71-4.15-9.41a1.22,1.22,0,0,1-.11-1.59,47.48,47.48,0,0,0,2.05-4.4c1.56-4,3.11-8,4.52-12.07a21.67,21.67,0,0,0,1-4.74c.25-2.28-.54-3.2-3.22-3.24a36.7,36.7,0,0,0-5.3.65c.12-.66.26-1.55.42-2.43,1.46-7.86,2.47-15.8,4.86-23.47.91-2.9,1.65-5.85,2.39-8.8.56-2.24-.6-3.76-2.88-3.66a37.83,37.83,0,0,0-11.45,2.51c-3.17,1.17-6.3,2.48-9.47,3.73a2.74,2.74,0,0,1-.29-.47c-1-2.89-2-5.76-2.87-8.67-.48-1.6-1.28-2.19-2.75-1.33a13,13,0,0,0-3.62,2.85c-3,3.8-5.9,7.73-8.77,11.65a18,18,0,0,0-2.1,3.6A105.11,105.11,0,0,0,92.37,55.5c-2,7.18-2.68,14.5-3.26,21.86a6.37,6.37,0,0,1-1,2.75,20.39,20.39,0,0,0-2.83,9.31,10.35,10.35,0,0,0-1.35.52,16.16,16.16,0,0,0-7.43,8.74,33,33,0,0,0-1.23,5.78,54.45,54.45,0,0,0-.91,6.7,90.68,90.68,0,0,1-2.08,13.52,35.57,35.57,0,0,0-1.06,6.81c0,3.5,1.7,6.58,3.59,9.36a16.59,16.59,0,0,1,2.55,6.29A31.73,31.73,0,0,1,77,160.41c-1.23,5.37-2.93,10.64-4.6,15.89-1.77,5.57-4.66,10.64-7.65,15.63q-3.08,5.12-6.19,10.2-4.5-2.55-8.72-5.5-2.81-2-5.48-4.12c-1.33-1.07-2.64-2.18-3.92-3.31q-1.27-1.14-2.52-2.31l-1.24-1.19q-1.78-1.75-3.51-3.59l-.13-.15c-.76-.82-1.5-1.64-2.23-2.48l-1.11-1.3c-.37-.43-.73-.87-1.09-1.31-.72-.89-1.43-1.79-2.12-2.69q-.51-.66-1-1.32c-.73-1-1.44-2-2.13-3l-.82-1.22a.94.94,0,0,1-.12-.18c-.45-.67-.88-1.34-1.31-2-.31-.48-.6-1-.89-1.44,0,0,0,0,0,0-.33-.55-.66-1.1-1-1.66-.2-.33-.4-.67-.59-1-.3-.54-.61-1.08-.9-1.63l-.11-.2c-.36-.65-.7-1.31-1-2a3,3,0,0,1-.16-.31c-.35-.68-.69-1.37-1-2.06,0-.09-.09-.17-.13-.26-.31-.65-.62-1.31-.92-2q-1.11-2.43-2.09-4.92c-.31-.8-.62-1.6-.91-2.41s-.56-1.54-.82-2.32-.62-1.85-.9-2.78c-.22-.7-.43-1.41-.63-2.12-.28-.94-.53-1.89-.77-2.84-.21-.79-.4-1.58-.58-2.37s-.38-1.7-.56-2.56-.32-1.64-.47-2.47a.57.57,0,0,1,0-.18c-.14-.76-.27-1.53-.39-2.3,0-.24-.07-.49-.11-.74-.11-.7-.2-1.41-.29-2.12s-.19-1.5-.26-2.25c0-.33-.07-.67-.1-1-.07-.64-.12-1.29-.17-1.93a1.41,1.41,0,0,1,0-.2c-.07-.84-.13-1.68-.17-2.53v-.08q-.06-1.11-.09-2.22c0-.44,0-.88,0-1.33,0-.62,0-1.25,0-1.87A105.36,105.36,0,0,1,110.36,5Z"/><path class="cls-2" d="M130.12,102.92c1.86-.73,3.1-.28,3.66,1.59a73.64,73.64,0,0,1,2,8.43c.38,2.19.38,4.45.56,6.78-.2,1.26-.22,2.74-1.73,3.42a4.68,4.68,0,0,1-4.7-.54c-4-2.45-4.32-6.41-4.64-10.44a9.23,9.23,0,0,1,2.83-7.88A6.49,6.49,0,0,1,130.12,102.92Z"/><path class="cls-3" d="M132.86,72.91c-.76.32-1.5.64-2.25,1C131.36,73.55,132.1,73.23,132.86,72.91Z"/><path class="cls-3" d="M130.61,73.89c-.74.34-1.48.7-2.21,1.06C129.13,74.58,129.87,74.23,130.61,73.89Z"/><path class="cls-2" d="M115.72,113.74A21.39,21.39,0,0,1,123,120a16.94,16.94,0,0,1,1.3,2.12c1.07,2,.85,2.6-1,4a87.79,87.79,0,0,0-6.93,5.82c-2.37,2.29-4.48,4.84-6.71,7.27a9.49,9.49,0,0,1-1.13.94c-3.66-3.45-7.13-6.86-10.77-10.08a73.28,73.28,0,0,0-6-4.35c-1.41-1-1.67-1.93-.83-3.43a19.2,19.2,0,0,1,5.21-6,25.58,25.58,0,0,1,6.55-3.78C107.27,110.84,111.57,111.52,115.72,113.74Z"/><path class="cls-2" d="M110.36,175.45c.49-5.15.77-10.32,1.12-15.47A43.66,43.66,0,0,1,115,146.21c1-2.5,2-5.24,4.43-6.93a2.11,2.11,0,0,1,1.66-.1,4.32,4.32,0,0,1,1.52,1.12,44.1,44.1,0,0,1,9.6,15.15A67.32,67.32,0,0,1,135.49,168,23.28,23.28,0,0,1,134,180.17a25.54,25.54,0,0,1-4.06,7.57,13,13,0,0,1-9.74,5c-1.9.09-3.41-1.13-4.77-2.35a14.6,14.6,0,0,1-5-11.58C110.38,177.69,110.36,176.57,110.36,175.45Z"/><path class="cls-2" d="M111.48,160c-.35,5.15-.63,10.32-1.12,15.47l-.3,0C110.54,170.27,111.13,165.13,111.48,160Z"/><path class="cls-2" d="M110.1,40.58a18.07,18.07,0,0,0,3.43,8c5.4-3.61,11-6.85,17.45-8.53-4,12-5.77,24.33-6.42,37.06,1.46-.83,2.62-1.54,3.84-2.15.73-.36,1.47-.72,2.21-1.06s1.49-.66,2.25-1a3.79,3.79,0,0,1,1.31,0,3.68,3.68,0,0,1,0,1.33c-.68,1.51-1.45,3-2.19,4.45q-3.48,7-7,13.94c-.74,1.47-1.55,2.89-2.3,4.35-1,1.92-1,1.88-3.07,1.67-2.29-.22-4.58-.39-6.87-.48-2-.08-4.08-.11-6.11,0s-4.06.53-6.09.7a3.05,3.05,0,0,1-2.07-.37,15.93,15.93,0,0,1-5.27-8.16,15.14,15.14,0,0,1,1.08-9,12,12,0,0,1,3.45-4.64,126.13,126.13,0,0,1,3.59-19.6,66,66,0,0,1,6.88-16,3,3,0,0,1,.84-1C109.55,39.79,110,39.8,110.1,40.58Z"/><path class="cls-2" d="M95,139.6c1-1,1.62-.94,2.68.05,2.2,2,3.27,4.74,4.3,7.43a48.52,48.52,0,0,1,2.39,7.57,94,94,0,0,1,1.4,10c.35,3.6.48,7.23.71,10.85-.16,3,0,6-1.07,8.94a15.05,15.05,0,0,1-6.2,7.46,5.74,5.74,0,0,1-4.21.64c-6.27-1.1-9.42-5.5-11.7-10.86a26.13,26.13,0,0,1-2.19-13.37,49.46,49.46,0,0,1,2.23-9.48c1.62-4.94,3.53-9.78,6.75-14,.42-.55,1-1,1.44-1.49C92.64,142.15,93.74,140.81,95,139.6Z"/><path class="cls-2" d="M81.76,123.52c-2.43.27-4-1-4-3.4.09-5.21.49-10.42,2.35-15.37.87-2.31,2.64-2.77,4.7-1.37a7.57,7.57,0,0,1,3.72,6.75,10,10,0,0,0,.26,1.92c-.24,2.93-.36,5.74-2,8A7.31,7.31,0,0,1,81.76,123.52Z"/><path class="cls-2" d="M20.27,165c.29.48.58,1,.89,1.44C20.86,166,20.56,165.48,20.27,165Z"/><path class="cls-2" d="M20.25,165c-.33-.55-.66-1.1-1-1.66C19.59,163.88,19.92,164.43,20.25,165Z"/><path class="cls-2" d="M17.78,160.68c.29.55.6,1.09.9,1.63C18.38,161.77,18.07,161.23,17.78,160.68Z"/><path class="cls-2" d="M16.63,158.51c.34.66.68,1.32,1,2C17.31,159.83,17,159.17,16.63,158.51Z"/><path class="cls-2" d="M15.45,156.14c.33.69.67,1.38,1,2.06C16.12,157.52,15.78,156.83,15.45,156.14Z"/><path class="cls-2" d="M14.4,153.91c.3.66.61,1.32.92,2C15,155.23,14.7,154.57,14.4,153.91Z"/><path class="cls-2" d="M11.4,146.58c.29.81.6,1.61.91,2.41C12,148.19,11.69,147.39,11.4,146.58Z"/><path class="cls-2" d="M10.58,144.26c.26.78.53,1.55.82,2.32C11.11,145.81,10.84,145,10.58,144.26Z"/><path class="cls-2" d="M9.05,139.36c.2.71.41,1.42.63,2.12C9.46,140.78,9.25,140.07,9.05,139.36Z"/><path class="cls-2" d="M7.7,134.15c.18.79.37,1.58.58,2.37C8.07,135.73,7.88,134.94,7.7,134.15Z"/><path class="cls-2" d="M7.14,131.59c.18.86.36,1.71.56,2.56C7.5,133.3,7.32,132.45,7.14,131.59Z"/><path class="cls-2" d="M6.67,129.12c.15.83.3,1.65.47,2.47C7,130.77,6.81,130,6.67,129.12Z"/><path class="cls-2" d="M6.25,126.64c.12.77.25,1.54.39,2.3C6.5,128.18,6.37,127.41,6.25,126.64Z"/><path class="cls-2" d="M5.85,123.78c.09.71.18,1.42.29,2.12C6,125.2,5.94,124.49,5.85,123.78Z"/><path class="cls-2" d="M5.59,121.53c.07.75.16,1.5.26,2.25C5.75,123,5.66,122.29,5.59,121.53Z"/><path class="cls-2" d="M5.32,118.59c0,.64.1,1.29.17,1.93C5.42,119.88,5.37,119.24,5.32,118.59Z"/><path class="cls-2" d="M5.14,115.86c0,.85.1,1.69.17,2.53C5.24,117.55,5.18,116.71,5.14,115.86Z"/><path class="cls-2" d="M5.05,113.56q0,1.11.09,2.22Q5.08,114.67,5.05,113.56Z"/><path class="cls-4" d="M5,112.23c0-.62,0-1.25,0-1.87a105.36,105.36,0,0,1,210.72,0c0,.66,0,1.32,0,2s0,1,0,1.54,0,1.27-.08,1.9c0,.84-.09,1.67-.16,2.5,0,.68-.1,1.35-.17,2,0,.41-.07.81-.12,1.21a.76.76,0,0,1,0,.15c-.08.71-.16,1.41-.25,2.11s-.18,1.36-.28,2q-.08.59-.18,1.17c-.22,1.41-.47,2.8-.75,4.18-.06.34-.13.68-.21,1-.15.75-.32,1.49-.49,2.23s-.36,1.52-.56,2.28-.44,1.68-.68,2.51-.48,1.66-.74,2.49-.52,1.64-.8,2.46c-.19.58-.39,1.15-.6,1.72s-.34.95-.52,1.41-.38,1-.58,1.53c-.38,1-.77,1.93-1.18,2.89-.28.65-.56,1.29-.86,1.94-.37.83-.75,1.65-1.15,2.47s-.65,1.34-1,2a2.12,2.12,0,0,1-.11.21c-.36.72-.74,1.43-1.12,2.14l-.13.23c-.3.55-.6,1.1-.92,1.64-.4.72-.82,1.44-1.25,2.15-.28.47-.56.93-.85,1.39s-.62,1-.95,1.5c-.63,1-1.3,2-2,3s-1.36,1.93-2.07,2.88c-.34.47-.7.94-1.07,1.41s-.68.88-1,1.32a3.15,3.15,0,0,1-.24.3c-.67.85-1.37,1.69-2.08,2.51-.34.41-.69.81-1,1.2l-.37.42c-.3.35-.61.69-.93,1s-.8.87-1.21,1.3-.56.6-.86.9c-.93,1-1.9,1.93-2.88,2.87-.42.41-.86.82-1.29,1.21s-.87.81-1.31,1.19c-.88.8-1.77,1.57-2.68,2.32-.36.32-.73.62-1.1.91l-.66.53c-.32.28-.66.54-1,.79s-.93.73-1.41,1.08-.71.54-1.07.8-.51.38-.76.55-.69.51-1,.74c-1,.69-1.94,1.36-2.93,2-.5.34-1,.66-1.5,1-1,.65-2,1.26-3,1.85-.46.28-.92.55-1.39.8-1.09.62-2.19,1.21-3.3,1.78a105.4,105.4,0,0,1-108.86-7.34c-1.88-1.3-3.7-2.68-5.48-4.12-1.34-1.06-2.64-2.17-3.92-3.31q-1.29-1.12-2.52-2.31c-.42-.38-.83-.78-1.24-1.19q-1.8-1.74-3.51-3.59l-.13-.15c-.77-.81-1.51-1.64-2.23-2.48-.38-.43-.75-.86-1.11-1.3s-.73-.87-1.09-1.31c-.72-.88-1.43-1.78-2.12-2.69q-.51-.66-1-1.32c-.73-1-1.44-2-2.13-3l-.82-1.22a.94.94,0,0,1-.12-.18c-.45-.67-.89-1.35-1.31-2-.31-.48-.6-1-.89-1.44,0,0,0,0,0,0-.33-.55-.66-1.1-1-1.66-.2-.33-.4-.67-.59-1-.3-.54-.61-1.08-.9-1.63l-.11-.2c-.36-.65-.7-1.31-1-2a3,3,0,0,1-.16-.31c-.35-.68-.69-1.37-1-2.06,0-.09-.09-.17-.13-.26-.31-.65-.62-1.31-.92-2q-1.11-2.43-2.09-4.92c-.31-.8-.62-1.6-.91-2.41s-.56-1.54-.82-2.32-.62-1.85-.9-2.78c-.22-.7-.43-1.41-.63-2.12-.28-.94-.53-1.89-.77-2.84-.21-.79-.4-1.58-.58-2.37s-.38-1.7-.56-2.56-.32-1.64-.47-2.47a.57.57,0,0,1,0-.18c-.14-.76-.27-1.53-.39-2.3,0-.24-.07-.49-.11-.74-.11-.7-.2-1.41-.29-2.12s-.19-1.5-.26-2.25c0-.33-.07-.67-.1-1-.07-.64-.12-1.29-.17-1.93a1.41,1.41,0,0,1,0-.2c-.07-.84-.13-1.68-.17-2.53v-.08q-.06-1.11-.09-2.22C5,113.12,5,112.67,5,112.23Z"/></g></g></svg>