<svg xmlns="http://www.w3.org/2000/svg" viewBox="0 0 384.77 261.87"><defs><style>.cls-1{isolation:isolate;font-size:100px;font-family:Sen-Bold,Sen;font-weight:700}.cls-1,.cls-4{fill:#fff}.cls-2{fill:#7f7f7f}.cls-3{fill:#fe3132}</style></defs><g id="Layer_2" data-name="Layer 2"><g id="Layer_1-2" data-name="Layer 1"><text class="cls-1" transform="translate(0 82.72)">RTBYTE</text><g id="Layer_2-2" data-name="Layer 2"><g id="Layer_1-2-2" data-name="Layer 1-2"><path d="M155.25,188.57c.14-.14.05-.26,0-.38-.26-1.36-.48-2.72-.62-4.1a29.71,29.71,0,0,1,.45-9.73,17.85,17.85,0,0,1,1.81-4.78,12.94,12.94,0,0,1,4.42-4.73,13.29,13.29,0,0,1,5.28-1.88,20.76,20.76,0,0,1,8,.59,32.66,32.66,0,0,1,6.18,2.32l.58.26c.16-.18,0-.26-.07-.35-.68-.94-1.41-1.86-2.05-2.83a27.12,27.12,0,0,1-3.93-9.12,20,20,0,0,1-.44-5.93,14.79,14.79,0,0,1,4.39-9.77,15.73,15.73,0,0,1,7.06-3.92,21.56,21.56,0,0,1,7.46-.61,30,30,0,0,1,11.64,3.56c.76.4,1.5.86,2.24,1.3a7.47,7.47,0,0,0,1.1.54,60.48,60.48,0,0,1,19.46,12.05,64.41,64.41,0,0,1,19.31,32.52,59.72,59.72,0,0,1,1.53,9c.15,1.59.23,3.19.27,4.79a59.53,59.53,0,0,1-.2,6.54,61.28,61.28,0,0,1-5.56,21,59.05,59.05,0,0,1-26.31,27.53A58.33,58.33,0,0,1,189.13,259a59.7,59.7,0,0,1-24.74-5.81A63.22,63.22,0,0,1,135.63,226a5.08,5.08,0,0,1-.64-1.4,1.09,1.09,0,0,0-.23-.39,33.34,33.34,0,0,1-5.83-13.39,40,40,0,0,1-.83-6.81,35.35,35.35,0,0,1,1.22-11,24.53,24.53,0,0,1,2.46-5.92,16.7,16.7,0,0,1,3.36-4.17,11.36,11.36,0,0,1,5.17-2.7,10.39,10.39,0,0,1,5.74.42,14.92,14.92,0,0,1,5.16,3.16,23.35,23.35,0,0,1,3.65,4.29C155,188.25,155.05,188.46,155.25,188.57Z" class="cls-2"/><path d="M190.62,247.67a30.64,30.64,0,0,1-11.4-2.14,26,26,0,0,1-15-15.42,30.3,30.3,0,0,1-1.72-7.1,35.3,35.3,0,0,1-.19-6.66,42,42,0,0,1,2.11-10.65A50.67,50.67,0,0,1,174,188.83,51.78,51.78,0,0,1,191.1,175.5,43.39,43.39,0,0,1,201.5,172a36,36,0,0,1,9-.68,29.43,29.43,0,0,1,12.41,3.35,25.9,25.9,0,0,1,11.71,12.83,30.2,30.2,0,0,1,2.25,8.35,36.8,36.8,0,0,1,.19,6.8,42.31,42.31,0,0,1-2.24,11,50.63,50.63,0,0,1-9,16,51.87,51.87,0,0,1-15.79,13,43.77,43.77,0,0,1-11.64,4.28,35.55,35.55,0,0,1-5.45.75Z" class="cls-3"/><path d="M148.63,185.48a8,8,0,0,1,.44-2.86,4.59,4.59,0,0,1,1.12-1.87,2.9,2.9,0,0,1,2.8-.82,5,5,0,0,1,1.69.77,7.58,7.58,0,0,1,1.39,1.26,11,11,0,0,1,1.92,3.28,11.9,11.9,0,0,1,.79,5.21,7.5,7.5,0,0,1-.52,2.33,4.57,4.57,0,0,1-.8,1.32,3.06,3.06,0,0,1-3.4,1,4.92,4.92,0,0,1-1.74-1,8.82,8.82,0,0,1-1.87-2.21A12.36,12.36,0,0,1,148.63,185.48Z" class="cls-4"/><path d="M190.63,157.78a8.56,8.56,0,0,1-6.52-3.2,4.58,4.58,0,0,1-1-2,3,3,0,0,1,1.77-3.56,4.64,4.64,0,0,1,2.14-.4,9.08,9.08,0,0,1,5.12,1.76,7.17,7.17,0,0,1,1.75,1.81,4.67,4.67,0,0,1,.75,1.85,2.89,2.89,0,0,1-1.27,3,4.45,4.45,0,0,1-2.19.72Z" class="cls-4"/><path d="M136.78,182.28a12.59,12.59,0,0,1,.72-4.07,4.76,4.76,0,0,1,1.09-1.82A4.09,4.09,0,0,1,139,176a1.54,1.54,0,0,1,2,.05,3.41,3.41,0,0,1,.89,1.18,8.12,8.12,0,0,1,.77,2.54,12.59,12.59,0,0,1-.36,5.32,7.33,7.33,0,0,1-.8,1.84,3.58,3.58,0,0,1-.85,1,1.58,1.58,0,0,1-2.13-.07,3.46,3.46,0,0,1-.87-1.2,7.58,7.58,0,0,1-.67-2.28C136.89,183.66,136.85,183,136.78,182.28Z" class="cls-4"/><path d="M170.49,161.59a5.4,5.4,0,0,1-1.77-.34,7.66,7.66,0,0,1-3.73-3,4.78,4.78,0,0,1-.81-2.15,2.54,2.54,0,0,1,2.1-2.89,4.73,4.73,0,0,1,2.42.19,7.48,7.48,0,0,1,4,3,4.85,4.85,0,0,1,.8,2,2.57,2.57,0,0,1-2.36,3.09C170.93,161.58,170.71,161.58,170.49,161.59Z" class="cls-4"/><path d="M174.73,175.87a10.47,10.47,0,0,1-1.12-.19,6.78,6.78,0,0,1-4-2.92A3.66,3.66,0,0,1,169,171a2.09,2.09,0,0,1,1.61-2.33,4.43,4.43,0,0,1,2.5.07,7,7,0,0,1,3.48,2.37,4.45,4.45,0,0,1,.94,2,2.22,2.22,0,0,1-1.93,2.72C175.35,175.84,175.08,175.84,174.73,175.87Z" class="cls-4"/><path d="M150.76,168.19a2.52,2.52,0,0,1-.24,1.14,1.35,1.35,0,0,1-1.46.82,2.49,2.49,0,0,1-.8-.25,3.11,3.11,0,0,1-.79-.55,5.47,5.47,0,0,1-1.8-4,2.85,2.85,0,0,1,.11-.76,1.46,1.46,0,0,1,2-1,2.53,2.53,0,0,1,.64.31A5.7,5.7,0,0,1,150.76,168.19Z" class="cls-4"/><path d="M143.77,198.2a5.39,5.39,0,0,1-.31,2,3.94,3.94,0,0,1-.5,1,1.06,1.06,0,0,1-1.84,0,3.46,3.46,0,0,1-.52-.89,5.92,5.92,0,0,1-.45-2.53,6.21,6.21,0,0,1,.35-2,2.85,2.85,0,0,1,.63-1,1,1,0,0,1,1.6,0,2.64,2.64,0,0,1,.59.92A6.41,6.41,0,0,1,143.77,198.2Z" class="cls-4"/><path d="M184.3,145.65a3.36,3.36,0,0,1-1.92-.62,2.11,2.11,0,0,1-.78-1,1.4,1.4,0,0,1,.61-1.79,2.78,2.78,0,0,1,.84-.33A3,3,0,0,1,186,143a1.54,1.54,0,0,1-.77,2.46,2.09,2.09,0,0,1-.43.11Z" class="cls-4"/><path d="M168.73,148.35c0-.83.36-1.25,1-1.31a1.7,1.7,0,0,1,.45,0,3.05,3.05,0,0,1,2.38,2.13,1.13,1.13,0,0,1-1.12,1.51,2.27,2.27,0,0,1-.82-.12,3,3,0,0,1-1.74-1.56A3.72,3.72,0,0,1,168.73,148.35Z" class="cls-4"/><path d="M130.76,218.79l.22.19c.32.41.64.82,1,1.24a11.65,11.65,0,0,0,2.72,2.84,7.6,7.6,0,0,0,1.81,1,6,6,0,0,0,4.6-.09,10.38,10.38,0,0,0,3.84-2.91,20.06,20.06,0,0,0,2.46-3.73,38.82,38.82,0,0,0,1.91-4.39,45,45,0,0,0,2-7.65l.33-1.78c0-.1.05-.21.1-.41.09.25.16.41.2.57a42.91,42.91,0,0,0,2.68,6.94,51.62,51.62,0,0,0,3.49,6.14,45,45,0,0,0,4.84,6,33.57,33.57,0,0,0,3.68,3.37,31.16,31.16,0,0,0,4.58,3,30,30,0,0,0,3,1.39,22.6,22.6,0,0,0,5.31,1.4,16.47,16.47,0,0,0,5.29-.13,16,16,0,0,0,5.55-2.27,16.73,16.73,0,0,0,4-3.8,21.6,21.6,0,0,0,3.59-7.35,29.53,29.53,0,0,0,1.08-6.18,34.64,34.64,0,0,0,.05-4.67,44.73,44.73,0,0,0-2.35-12.11c-.44-1.29-.95-2.55-1.43-3.82-.07-.18-.14-.36-.22-.59a.61.61,0,0,1,.43.18,25.57,25.57,0,0,0,2.87,1.75,17.57,17.57,0,0,0,6.66,2,11.23,11.23,0,0,0,10.57-4.8,17.32,17.32,0,0,0,2.57-5.42,26.53,26.53,0,0,0,.94-5.15c.13-1.34.21-2.67.22-4,0-1-.06-1.9-.15-2.85a51.36,51.36,0,0,0-1.75-9.35,61.45,61.45,0,0,0-3.86-10.08,55.89,55.89,0,0,0-5.61-9.25,44,44,0,0,0-6.71-7.19,29,29,0,0,0-5.69-3.81l-.26-.15c0-.16.14-.11.21-.11,1.69.1,3.37.24,5,.48,1.32.19,2.65.33,4,.65,1,.23,1.94.39,2.91.62s1.8.46,2.69.72,1.69.49,2.53.78,1.91.7,2.86,1c1.52.56,3,1.24,4.45,1.92.77.35,1.51.75,2.25,1.15s1.52.81,2.27,1.24,1.19.7,1.78,1.07,1.43.89,2.12,1.37c1.24.85,2.48,1.72,3.65,2.69s2.1,1.72,3.13,2.61a44.26,44.26,0,0,1,3.82,3.68c.86.94,1.72,1.88,2.55,2.84a45.49,45.49,0,0,1,2.92,3.72c.71,1,1.44,2,2.09,3a52.27,52.27,0,0,1,2.67,4.59c.39.77.81,1.52,1.18,2.3s.82,1.81,1.21,2.72.73,1.75,1.07,2.64c.5,1.31.95,2.64,1.33,4,.31,1.1.64,2.2.93,3.31.17.66.31,1.34.45,2,.4,2,.73,4.08,1,6.14a63.9,63.9,0,0,1,.36,9.78,69.35,69.35,0,0,1-.67,7c-.27,1.86-.65,3.7-1.08,5.53-.32,1.41-.76,2.79-1.17,4.17-.51,1.74-1.16,3.44-1.83,5.13-.32.8-.68,1.58-1,2.36s-.75,1.61-1.15,2.4-.89,1.68-1.35,2.51c-.85,1.55-1.79,3-2.78,4.52-.85,1.25-1.75,2.46-2.69,3.65q-1.71,2.16-3.58,4.17a48,48,0,0,1-3.59,3.54c-1.07.95-2.14,1.89-3.25,2.79s-2.39,1.84-3.64,2.7c-1.05.71-2.11,1.41-3.2,2.07s-2.11,1.26-3.21,1.82c-.77.38-1.53.8-2.3,1.18s-1.6.76-2.42,1.1c-1.18.49-2.36,1-3.55,1.4q-2.34.87-4.75,1.52t-5,1.17c-1.87.37-3.75.62-5.64.84a60.68,60.68,0,0,1-8.09.33,66.1,66.1,0,0,1-8.32-.74c-1.61-.23-3.19-.55-4.76-.92-2-.45-3.91-.93-5.82-1.57-1-.33-2-.69-3-1.09-1.45-.57-2.88-1.16-4.31-1.78-.83-.36-1.63-.78-2.44-1.19s-1.45-.77-2.17-1.17c-.54-.3-1.09-.62-1.62-.94-.78-.47-1.55-.94-2.31-1.43s-1.57-1.06-2.34-1.61-1.5-1.1-2.23-1.67-1.42-1.12-2.12-1.7c-1-.86-2-1.75-3-2.69A45.75,45.75,0,0,1,143,240c-.18-.22-.4-.4-.58-.61-.47-.54-.93-1.08-1.38-1.63-.32-.38-.61-.78-.94-1.16a27.2,27.2,0,0,1-2.1-2.88c-.15-.23-.35-.44-.5-.67L136,230.59c-.31-.49-.65-1-.94-1.47-.43-.77-.85-1.56-1.26-2.34-.55-1.05-1.11-2.09-1.57-3.19-.24-.58-.48-1.16-.71-1.74a13.72,13.72,0,0,1-.71-2.75A1.6,1.6,0,0,1,130.76,218.79Z" class="cls-4"/></g></g></g></g></svg>