<svg xmlns="http://www.w3.org/2000/svg" viewBox="0 0 1053.33 1056.95"><defs><style>.cls-1{fill:#161a22}.cls-2{fill:#fe3132}.cls-3{fill:#292e3b}</style></defs><g id="Layer_2" data-name="Layer 2"><g id="Layer_1-2" data-name="Layer 1"><path d="M222.65,456.75c1.1-1.1.41-2.12.22-3.08-2.1-11.13-3.93-22.31-5.08-33.58-2.72-26.76-2.37-53.38,3.69-79.73a145.35,145.35,0,0,1,14.79-39.1c8.94-15.85,20.73-29.05,36.24-38.75a108.09,108.09,0,0,1,43.2-15.35c22.07-3,43.77-.71,65.22,4.78a272.15,272.15,0,0,1,50.62,19c1.57.77,3.18,1.46,4.72,2.16,1.3-1.46,0-2.13-.56-2.86-5.58-7.75-11.52-15.26-16.79-23.22-15.17-22.95-26.19-47.74-32.19-74.67a163.4,163.4,0,0,1-3.63-48.54c2.44-30.94,13.65-58.06,36-80,16.31-16,35.9-26.26,57.83-32.15,20-5.38,40.44-6.7,61.07-5,33.86,2.86,65.38,13.41,95.27,29.2,6.25,3.3,12.32,7,18.38,10.61a57.18,57.18,0,0,0,9,4.48A494.51,494.51,0,0,1,820,149.57Q939,258.94,978.13,415.93a492,492,0,0,1,12.52,73.74c1.22,13.05,1.86,26.11,2.21,39.21a481.07,481.07,0,0,1-1.63,53.57A500.18,500.18,0,0,1,945.68,754,482.9,482.9,0,0,1,730.26,979.45a477,477,0,0,1-230.21,53.7,488,488,0,0,1-202.59-47.56C195.06,937,117,862.42,62,763.45c-2-3.69-4.43-7.25-5.32-11.52a9.11,9.11,0,0,0-1.87-3.16C30.2,716,15.56,678.89,7.08,639.13A329,329,0,0,1,.26,583.34C-.95,552.69,2,522.53,10.25,493A202.31,202.31,0,0,1,30.4,444.56a137.09,137.09,0,0,1,27.54-34.17c12.3-10.84,26.21-18.6,42.36-22.08s31.68-1.95,47,3.39c16,5.56,29.78,14.67,42.25,25.94a189,189,0,0,1,29.86,35.1C220.4,454.15,221,455.88,222.65,456.75Z" class="cls-1"/><path d="M512.25,940.73c-32.16-.37-63.48-5.34-93.36-17.51-59.3-24.16-100-66.62-122.89-126.28-7.2-18.75-11.56-38.21-14.08-58.14a288,288,0,0,1-1.56-54.59A345,345,0,0,1,297.66,597c17.08-51.19,43.58-97,78.42-138.11,39.1-46.1,85.58-82.83,140.09-109.18a354.79,354.79,0,0,1,85.22-28.81,294.43,294.43,0,0,1,73.39-5.53c35.8,1.92,69.9,10.41,101.64,27.42,44.25,23.72,75.81,59.14,95.9,105,9.58,21.87,15.39,44.77,18.41,68.44a294.15,294.15,0,0,1,1.55,55.65A343.62,343.62,0,0,1,874,661.54c-16.51,48.27-41.58,91.75-74,131C763.81,836.28,720.93,872,670.75,898.66a360,360,0,0,1-95.31,35,290.62,290.62,0,0,1-44.64,6.12C524.62,940.11,518.44,940.41,512.25,940.73Z" class="cls-2"/><path d="M168.43,431.43A66.6,66.6,0,0,1,172,408c2-5.73,4.79-11,9.23-15.29,6.45-6.16,14.08-8.8,22.88-6.7A40.46,40.46,0,0,1,218,392.32a62.85,62.85,0,0,1,11.33,10.34,89.25,89.25,0,0,1,15.76,26.85,98.93,98.93,0,0,1,6.46,42.64,61.79,61.79,0,0,1-4.28,19.05,36.5,36.5,0,0,1-6.52,10.86q-11.42,12.72-27.84,7.84a40.25,40.25,0,0,1-14.24-8,71.41,71.41,0,0,1-15.36-18.13A101.18,101.18,0,0,1,168.43,431.43Z" class="cls-3"/><path d="M512.35,204.6c-21.67-.85-39.58-9.46-53.41-26.21a37.79,37.79,0,0,1-7.92-16c-2.83-12.65,2.67-23.78,14.47-29.2a37.8,37.8,0,0,1,17.56-3.24c15.41.63,29.5,5.19,41.95,14.44a59,59,0,0,1,14.27,14.82,37.08,37.08,0,0,1,6.15,15.1c1.49,10.22-1.87,18.45-10.38,24.39-5.36,3.74-11.5,5.33-17.92,5.9C515.54,204.72,513.94,204.6,512.35,204.6Z" class="cls-3"/><path d="M71.41,405.28a101.41,101.41,0,0,1,5.88-33.36c2-5.53,4.67-10.7,8.94-14.88a31.38,31.38,0,0,1,3.55-3.18c5.29-3.83,11-3.66,16.14.41a27.89,27.89,0,0,1,7.34,9.65,66,66,0,0,1,6.24,20.75,102.26,102.26,0,0,1-2.89,43.62,59.89,59.89,0,0,1-6.55,15,28.75,28.75,0,0,1-7,7.94c-5.74,4.35-12,4.17-17.46-.51a29.34,29.34,0,0,1-7.11-9.83A61.71,61.71,0,0,1,73,422.16C72.31,416.56,71.94,410.91,71.41,405.28Z" class="cls-3"/><path d="M347.44,235.86A43,43,0,0,1,332.93,233a62.69,62.69,0,0,1-30.56-24.37A39.21,39.21,0,0,1,295.76,191c-1.3-11.85,5.51-21.21,17.15-23.6,6.8-1.4,13.43-.52,19.86,1.55a60.79,60.79,0,0,1,32.77,24.75,40.87,40.87,0,0,1,6.56,16.61c2.06,13.31-6,23.81-19.37,25.25C351,235.7,349.2,235.75,347.44,235.86Z" class="cls-3"/><path d="M382.11,352.77a82.38,82.38,0,0,1-9.14-1.6c-13.82-3.89-24.86-11.72-32.7-23.85A30.48,30.48,0,0,1,335.19,313c-.73-9.63,3.93-16.37,13.25-19.09,6.86-2,13.68-1.45,20.4.57a56.64,56.64,0,0,1,28.55,19.38A36.09,36.09,0,0,1,405.05,330c2.09,11.3-4.36,20.48-15.77,22.26C387.19,352.54,385.05,352.55,382.11,352.77Z" class="cls-3"/><path d="M185.84,289.87a20.76,20.76,0,0,1-1.92,9.32c-2.39,4.94-6.59,7.4-12,6.69a20.14,20.14,0,0,1-6.53-2,27.83,27.83,0,0,1-6.49-4.51c-9.32-9-14.61-19.8-14.71-32.89a24.07,24.07,0,0,1,.9-6.24c2.34-9,10.5-10.2,16.2-8.35a19,19,0,0,1,5.21,2.54C178.52,263.2,184.65,275.21,185.84,289.87Z" class="cls-3"/><path d="M128.59,535.59a44.58,44.58,0,0,1-2.49,16.69,33.36,33.36,0,0,1-4.11,8c-4.34,5.91-10.43,6-15.11.34a31,31,0,0,1-4.25-7.28c-2.9-6.6-3.74-13.65-3.62-20.75a49.47,49.47,0,0,1,2.85-16.67,22.37,22.37,0,0,1,5.15-8.56c4.29-4.14,8.8-4.16,13.08,0a22,22,0,0,1,4.83,7.55A51.08,51.08,0,0,1,128.59,535.59Z" class="cls-3"/><path d="M460.5,105.29c-6.32-.23-11.3-1.85-15.71-5.08a17.93,17.93,0,0,1-6.4-8.27c-2.17-5.77-.32-11.6,5-14.69a24.87,24.87,0,0,1,6.86-2.69c8.35-1.94,19.05,2.28,24,9.25C479.79,91.68,477,100.6,468,104a19.18,19.18,0,0,1-3.58.91C462.81,105.14,461.22,105.22,460.5,105.29Z" class="cls-3"/><path d="M333,127.43c-.05-6.81,3-10.24,8.55-10.79a16.35,16.35,0,0,1,3.7,0c8.66,1.17,17.37,9,19.46,17.51,1.68,6.85-2.08,12.08-9.15,12.35a18.41,18.41,0,0,1-6.76-1,23.9,23.9,0,0,1-14.19-12.79A30.39,30.39,0,0,1,333,127.43Z" class="cls-3"/><path d="M22.06,704.19a15.16,15.16,0,0,1,1.85,1.63c2.6,3.35,5.23,6.69,7.73,10.11,6.39,8.76,13.29,17,22.27,23.29a63.53,63.53,0,0,0,14.84,8.14c12.62,4.53,25.19,4.77,37.71-.7a85.45,85.45,0,0,0,31.41-23.84A163.25,163.25,0,0,0,158,692.29a312.48,312.48,0,0,0,15.64-36c7.45-20.35,12.31-41.33,16.1-62.6q1.31-7.31,2.64-14.6c.16-.85.42-1.68.85-3.36.74,2.08,1.27,3.35,1.65,4.66a347.93,347.93,0,0,0,21.94,56.86,424.29,424.29,0,0,0,28.54,50.27A375.43,375.43,0,0,0,285,736.61a279.72,279.72,0,0,0,30.15,27.53c11.87,9.27,24.18,17.94,37.5,25a228.82,228.82,0,0,0,24.52,11.37c14,5.41,28.47,9.61,43.49,11.46,14.49,1.78,29,1.91,43.32-1.07a130.28,130.28,0,0,0,45.41-18.54c12.88-8.46,23.62-19.06,33-31.16,14-18,23.09-38.44,29.45-60.17a244.54,244.54,0,0,0,8.81-50.61,295.2,295.2,0,0,0,.42-38.2A368.36,368.36,0,0,0,561.82,513c-3.59-10.54-7.82-20.86-11.75-31.28-.55-1.45-1.08-2.91-1.78-4.79,1.76-.12,2.61.79,3.52,1.43a199.19,199.19,0,0,0,23.55,14.35c17.15,8.8,35.21,14.86,54.48,16.47,36.09,3,65-10.15,86.55-39.33,9.88-13.4,16.41-28.46,21.05-44.36a223.17,223.17,0,0,0,7.76-42.21c1-10.92,1.72-21.86,1.77-32.82,0-7.77-.52-15.56-1.22-23.3a421.27,421.27,0,0,0-14.35-76.56A497.65,497.65,0,0,0,699.76,168,457.41,457.41,0,0,0,653.88,92.3c-16.25-21.56-34.3-41.43-55-58.87A239.7,239.7,0,0,0,552.29,2.19c-.75-.37-1.45-.84-2.12-1.24.36-1.31,1.19-.89,1.77-.86C565.72.88,579.48,2,593.14,4c10.84,1.56,21.75,2.73,32.44,5.3,7.9,1.89,15.93,3.24,23.84,5.11,7.39,1.74,14.72,3.75,22,5.84,7,2,13.91,4.07,20.76,6.42,7.86,2.69,15.6,5.72,23.39,8.6,12.44,4.6,24.48,10.13,36.51,15.69,6.25,2.89,12.31,6.2,18.4,9.43,6.25,3.31,12.47,6.68,18.61,10.18,4.91,2.79,9.72,5.77,14.5,8.77C809.45,83,815.31,86.63,821,90.54c10.18,7,20.33,14.11,29.9,22,8.59,7.07,17.2,14.13,25.65,21.37a365,365,0,0,1,31.24,30.2c7.06,7.67,14.06,15.4,20.91,23.26,8.48,9.73,16.43,19.91,23.9,30.44,5.83,8.21,11.74,16.38,17.13,24.88,7.74,12.23,15.3,24.6,21.82,37.56,3.18,6.32,6.67,12.49,9.7,18.87,3.48,7.34,6.69,14.81,9.87,22.29,3,7.16,6,14.33,8.79,21.61,4.06,10.75,7.8,21.61,10.91,32.68,2.54,9,5.17,18,7.55,27.07,1.44,5.46,2.59,11,3.7,16.56q5,25,8,50.29a528.74,528.74,0,0,1,2.93,80.06c-.66,19.29-2.86,38.45-5.54,57.57-2.14,15.26-5.31,30.32-8.79,45.29-2.67,11.52-6.23,22.84-9.58,34.2-4.21,14.25-9.5,28.14-15,41.93-2.62,6.56-5.6,13-8.56,19.38-3,6.58-6.13,13.14-9.41,19.6-3.53,6.93-7.24,13.77-11,20.6-7,12.71-14.69,25-22.81,37-6.94,10.23-14.35,20.15-22,29.89Q926.35,872.83,911,889.32c-9.37,10.11-19.13,19.87-29.44,29-8.72,7.75-17.49,15.46-26.57,22.77q-14.46,11.63-29.81,22.11c-8.61,5.87-17.3,11.61-26.22,17-8.62,5.2-17.28,10.34-26.29,14.86-6.32,3.17-12.51,6.61-18.87,9.69s-13.09,6.21-19.77,9c-9.63,4-19.31,7.88-29.09,11.5-12.76,4.72-25.72,8.91-38.86,12.41q-20.49,5.47-41.3,9.62c-15.3,3-30.71,5.08-46.16,6.85a503.72,503.72,0,0,1-66.26,2.69,542.16,542.16,0,0,1-68.15-6c-13.14-1.92-26.13-4.56-39-7.55-16-3.71-32-7.64-47.59-12.85q-12.31-4.11-24.38-8.93c-11.82-4.69-23.6-9.52-35.26-14.59-6.8-3-13.38-6.39-20-9.78-6-3.07-11.86-6.31-17.74-9.57q-6.72-3.72-13.3-7.68c-6.34-3.84-12.67-7.7-18.87-11.75q-9.75-6.39-19.22-13.18c-6.17-4.41-12.24-9-18.25-13.62s-11.66-9.19-17.36-13.95q-12.6-10.55-24.35-22c-9.2-9-18.56-17.92-26.82-27.88-1.46-1.76-3.24-3.26-4.75-5q-5.73-6.6-11.33-13.31c-2.6-3.13-5-6.43-7.63-9.52A232.85,232.85,0,0,1,81.12,826.1c-1.26-1.91-2.86-3.6-4.1-5.52-4.19-6.54-8.28-13.15-12.44-19.71-2.54-4-5.31-7.94-7.66-12.07-3.59-6.3-7-12.73-10.33-19.14-4.52-8.6-9.13-17.16-12.85-26.16-2-4.73-4-9.43-5.87-14.19-2.89-7.27-4.42-14.9-5.79-22.57A17,17,0,0,1,22.06,704.19Z" class="cls-3"/></g></g></svg>