<svg xmlns="http://www.w3.org/2000/svg" viewBox="0 0 534.53 129.07"><defs><style>.cls-1{isolation:isolate;font-size:100px;font-family:Sen-Bold,Sen;font-weight:700}.cls-1,.cls-4{fill:#fff}.cls-2{fill:#7f7f7f}.cls-3{fill:#fe3132}</style></defs><g id="Layer_2" data-name="Layer 2"><g id="Layer_1-2" data-name="Layer 1"><text class="cls-1" transform="translate(149.76 100.07)">RTBYTE</text><g id="Layer_2-2" data-name="Layer 2"><g id="Layer_1-2-2" data-name="Layer 1-2"><path d="M27.19,55.78c.13-.14,0-.26,0-.38-.26-1.36-.48-2.72-.62-4.1a29.51,29.51,0,0,1,.45-9.74,17.63,17.63,0,0,1,1.8-4.77,12.81,12.81,0,0,1,4.43-4.73,13.09,13.09,0,0,1,5.27-1.88,20.8,20.8,0,0,1,8,.59,32.66,32.66,0,0,1,6.18,2.32l.58.26c.15-.18,0-.26-.07-.35-.68-1-1.41-1.86-2.05-2.84a26.87,26.87,0,0,1-3.93-9.11,19.72,19.72,0,0,1-.45-5.93,14.85,14.85,0,0,1,4.4-9.77,15.7,15.7,0,0,1,7.06-3.93A22,22,0,0,1,65.7.81,30.19,30.19,0,0,1,77.33,4.38c.77.4,1.51.85,2.25,1.29a6.28,6.28,0,0,0,1.1.55,60.62,60.62,0,0,1,19.46,12,64.55,64.55,0,0,1,19.31,32.53,61,61,0,0,1,1.52,9c.15,1.59.23,3.18.27,4.78a59.64,59.64,0,0,1-.19,6.55,61.07,61.07,0,0,1-5.57,21,59,59,0,0,1-26.3,27.53,58.24,58.24,0,0,1-28.12,6.55,59.6,59.6,0,0,1-24.74-5.8A63.3,63.3,0,0,1,7.57,93.23a5.48,5.48,0,0,1-.65-1.41,1.14,1.14,0,0,0-.23-.38A33.68,33.68,0,0,1,.86,78.05,40,40,0,0,1,0,71.24a35.42,35.42,0,0,1,1.22-11,24.7,24.7,0,0,1,2.46-5.91,16.74,16.74,0,0,1,3.37-4.17,11.26,11.26,0,0,1,5.17-2.7,10.38,10.38,0,0,1,5.74.41A15.13,15.13,0,0,1,23.15,51a23,23,0,0,1,3.64,4.29C26.91,55.46,27,55.67,27.19,55.78Z" class="cls-2"/><path d="M62.55,114.88a30.88,30.88,0,0,1-11.4-2.14,26,26,0,0,1-15-15.42,29.93,29.93,0,0,1-1.72-7.1,34.56,34.56,0,0,1-.19-6.67A42.18,42.18,0,0,1,36.35,72.9,50.72,50.72,0,0,1,45.93,56,51.71,51.71,0,0,1,63,42.71a43.18,43.18,0,0,1,10.41-3.52,36,36,0,0,1,9-.68,29.24,29.24,0,0,1,12.41,3.35,25.83,25.83,0,0,1,11.71,12.82A30.27,30.27,0,0,1,108.77,63a35.92,35.92,0,0,1,.19,6.8,41.73,41.73,0,0,1-2.23,10.94,50.79,50.79,0,0,1-9,16,52,52,0,0,1-15.78,13A44,44,0,0,1,70.27,114a37,37,0,0,1-5.45.74Z" class="cls-3"/><path d="M20.57,52.68A8.18,8.18,0,0,1,21,49.82,4.69,4.69,0,0,1,22.13,48a2.87,2.87,0,0,1,2.8-.82,4.88,4.88,0,0,1,1.69.77A7.92,7.92,0,0,1,28,49.17a10.92,10.92,0,0,1,1.92,3.28,12.17,12.17,0,0,1,.79,5.21A7.67,7.67,0,0,1,30.2,60a4.49,4.49,0,0,1-.8,1.33,3.08,3.08,0,0,1-3.4,1,5.08,5.08,0,0,1-1.74-1,8.79,8.79,0,0,1-1.87-2.21A12.37,12.37,0,0,1,20.57,52.68Z" class="cls-4"/><path d="M62.57,25A8.52,8.52,0,0,1,56,21.78a4.58,4.58,0,0,1-1-2,3,3,0,0,1,1.76-3.57A4.67,4.67,0,0,1,59,15.87a9,9,0,0,1,5.12,1.76,7.3,7.3,0,0,1,1.74,1.81,4.42,4.42,0,0,1,.75,1.85,2.85,2.85,0,0,1-1.26,3,4.32,4.32,0,0,1-2.19.72A5.61,5.61,0,0,1,62.57,25Z" class="cls-4"/><path d="M8.72,49.49a12.28,12.28,0,0,1,.72-4.07,4.64,4.64,0,0,1,1.09-1.82,4,4,0,0,1,.43-.39,1.52,1.52,0,0,1,2,0,3.35,3.35,0,0,1,.9,1.18A8,8,0,0,1,14.59,47a12.47,12.47,0,0,1-.35,5.33,7.11,7.11,0,0,1-.8,1.83,3.44,3.44,0,0,1-.85,1A1.59,1.59,0,0,1,10.45,55a3.7,3.7,0,0,1-.87-1.2,7.85,7.85,0,0,1-.67-2.29C8.83,50.87,8.79,50.18,8.72,49.49Z" class="cls-4"/><path d="M42.43,28.8a5.07,5.07,0,0,1-1.77-.35,7.71,7.71,0,0,1-3.74-3,4.76,4.76,0,0,1-.8-2.16,2.53,2.53,0,0,1,2.09-2.88,4.77,4.77,0,0,1,2.43.19,7.41,7.41,0,0,1,4,3,5,5,0,0,1,.8,2,2.57,2.57,0,0,1-2.37,3.09Z" class="cls-4"/><path d="M46.66,43.08a10.31,10.31,0,0,1-1.11-.2,6.78,6.78,0,0,1-4-2.91,3.76,3.76,0,0,1-.62-1.75,2.08,2.08,0,0,1,1.62-2.33A4.31,4.31,0,0,1,45,36a6.91,6.91,0,0,1,3.49,2.37,4.38,4.38,0,0,1,.93,2A2.21,2.21,0,0,1,47.54,43C47.28,43.05,47,43.05,46.66,43.08Z" class="cls-4"/><path d="M22.69,35.4a2.51,2.51,0,0,1-.23,1.14,1.34,1.34,0,0,1-1.47.81,2.49,2.49,0,0,1-.79-.24,3.67,3.67,0,0,1-.8-.55,5.49,5.49,0,0,1-1.79-4,2.79,2.79,0,0,1,.11-.76,1.46,1.46,0,0,1,2-1,2.17,2.17,0,0,1,.63.31A5.64,5.64,0,0,1,22.69,35.4Z" class="cls-4"/><path d="M15.7,65.4a5.41,5.41,0,0,1-.3,2,3.94,3.94,0,0,1-.5,1,1.07,1.07,0,0,1-1.85,0,3.77,3.77,0,0,1-.52-.89A6.09,6.09,0,0,1,12.09,65a6.16,6.16,0,0,1,.35-2,2.65,2.65,0,0,1,.63-1,1,1,0,0,1,1.6,0,2.66,2.66,0,0,1,.58.92A6.05,6.05,0,0,1,15.7,65.4Z" class="cls-4"/><path d="M56.23,12.86a3.3,3.3,0,0,1-1.91-.62,2.24,2.24,0,0,1-.79-1,1.43,1.43,0,0,1,.62-1.8A3.13,3.13,0,0,1,55,9.1a3.05,3.05,0,0,1,2.93,1.13,1.54,1.54,0,0,1-.76,2.47,2.18,2.18,0,0,1-.44.11C56.52,12.84,56.32,12.85,56.23,12.86Z" class="cls-4"/><path d="M40.66,15.56c0-.83.37-1.25,1.05-1.32h.45a3.08,3.08,0,0,1,2.38,2.14,1.13,1.13,0,0,1-1.12,1.51,2.35,2.35,0,0,1-.83-.12,3,3,0,0,1-1.73-1.56A4.88,4.88,0,0,1,40.66,15.56Z" class="cls-4"/><path d="M2.69,86l.23.2c.32.41.64.82.94,1.24a12,12,0,0,0,2.72,2.84,7.48,7.48,0,0,0,1.82,1,6,6,0,0,0,4.6-.08,10.57,10.57,0,0,0,3.84-2.91,20,20,0,0,0,2.45-3.73,36.54,36.54,0,0,0,1.91-4.4,44.64,44.64,0,0,0,2-7.64c.11-.6.21-1.19.32-1.78a3.81,3.81,0,0,1,.11-.41c.09.25.15.4.2.56a42.11,42.11,0,0,0,2.68,6.95A52.34,52.34,0,0,0,30,84a46.44,46.44,0,0,0,4.84,6,34.52,34.52,0,0,0,3.69,3.36,31.13,31.13,0,0,0,4.57,3.06,29.17,29.17,0,0,0,3,1.39,22.11,22.11,0,0,0,5.31,1.39,15.67,15.67,0,0,0,10.84-2.39,16.55,16.55,0,0,0,4-3.81,21.67,21.67,0,0,0,3.6-7.34,29.53,29.53,0,0,0,1.08-6.18,38.3,38.3,0,0,0,0-4.67,45,45,0,0,0-2.35-12.11c-.44-1.29-1-2.55-1.44-3.82-.06-.18-.13-.36-.21-.59a.63.63,0,0,1,.43.18,23.89,23.89,0,0,0,2.87,1.75,17.94,17.94,0,0,0,6.65,2,11.22,11.22,0,0,0,10.57-4.8A16.89,16.89,0,0,0,90.05,52a27.27,27.27,0,0,0,1-5.16c.12-1.33.21-2.66.22-4,0-.95-.07-1.9-.15-2.85a52.23,52.23,0,0,0-1.75-9.35,60.6,60.6,0,0,0-3.87-10.08,55.42,55.42,0,0,0-5.6-9.25,43.58,43.58,0,0,0-6.72-7.19A29,29,0,0,0,67.44.27c-.09-.05-.17-.11-.26-.15S67.33,0,67.4,0c1.68.1,3.36.23,5,.48,1.33.19,2.66.33,4,.65,1,.23,2,.39,2.92.62s1.79.46,2.68.71,1.7.5,2.54.79,1.9.7,2.85,1c1.52.56,3,1.23,4.46,1.91.76.36,1.5.76,2.25,1.15s1.52.82,2.27,1.25c.6.34,1.19.7,1.77,1.07s1.43.89,2.13,1.37c1.24.85,2.48,1.72,3.65,2.68s2.1,1.73,3.13,2.61A44.37,44.37,0,0,1,110.86,20c.86.94,1.71,1.88,2.55,2.84a45.49,45.49,0,0,1,2.92,3.72c.71,1,1.43,2,2.09,3a51,51,0,0,1,2.66,4.58c.39.77.82,1.53,1.19,2.31s.82,1.81,1.2,2.72.74,1.75,1.08,2.64c.49,1.31,1,2.64,1.33,4,.31,1.1.63,2.2.92,3.3.18.67.32,1.35.45,2q.61,3,1,6.14a63.76,63.76,0,0,1,.36,9.77,66.54,66.54,0,0,1-.68,7c-.26,1.86-.65,3.7-1.07,5.53-.33,1.4-.76,2.78-1.17,4.17-.52,1.74-1.16,3.44-1.83,5.12-.32.8-.69,1.59-1,2.37s-.75,1.6-1.15,2.39-.88,1.68-1.34,2.52c-.86,1.55-1.79,3-2.79,4.52-.84,1.25-1.75,2.46-2.68,3.65q-1.71,2.16-3.58,4.17a50.07,50.07,0,0,1-3.6,3.54c-1.06,1-2.13,1.89-3.24,2.78s-2.39,1.85-3.64,2.7c-1,.72-2.11,1.42-3.2,2.08s-2.11,1.26-3.21,1.81c-.78.39-1.53.81-2.31,1.19s-1.6.75-2.41,1.1c-1.18.48-2.36,1-3.56,1.4-1.55.58-3.14,1.09-4.74,1.52s-3.35.83-5,1.17c-1.87.37-3.75.62-5.64.84a62.47,62.47,0,0,1-8.09.32,64.28,64.28,0,0,1-8.32-.73c-1.61-.23-3.2-.55-4.77-.92-1.95-.45-3.9-.93-5.81-1.57-1-.33-2-.7-3-1.09-1.44-.57-2.88-1.16-4.3-1.78-.83-.37-1.64-.78-2.44-1.2s-1.45-.77-2.17-1.16c-.55-.31-1.09-.62-1.62-.94-.78-.47-1.55-.94-2.31-1.44s-1.57-1-2.35-1.61S24,115.51,23.28,115s-1.43-1.12-2.12-1.7c-1-.86-2-1.76-3-2.69-1.12-1.1-2.26-2.19-3.27-3.4-.18-.22-.4-.4-.58-.61-.47-.54-.93-1.08-1.39-1.63-.31-.38-.61-.79-.93-1.16a29.42,29.42,0,0,1-2.1-2.88c-.16-.23-.35-.44-.5-.67-.52-.8-1-1.61-1.52-2.41-.31-.49-.65-1-.94-1.47-.44-.77-.85-1.56-1.26-2.34-.55-1-1.12-2.1-1.57-3.2-.24-.57-.49-1.15-.72-1.73a13.79,13.79,0,0,1-.7-2.76C2.69,86.2,2.69,86.1,2.69,86Z" class="cls-4"/></g></g></g></g></svg>